<svg width="197" height="222" viewBox="0 0 197 222" fill="none" xmlns="http://www.w3.org/2000/svg">
<path d="M156.412 64.0275C150.69 59.2 141.921 59.1013 134.614 62.8422C134.087 63.1127 133.544 63.4012 132.964 63.7176C131.057 61.0642 126.722 60.492 122.953 61.4903C121.442 61.892 119.638 62.5607 117.444 63.4986C116.838 63.7578 116.204 64.0367 115.515 64.3461C114.603 64.7561 111.602 66.1368 111.07 66.3763C108.596 67.4865 106.086 68.6369 102.48 70.3069C102.133 70.4678 101.769 70.6365 101.352 70.8297C96.1835 73.2257 95.9895 73.3153 94.0834 74.1894C88.5492 76.7275 80.681 80.7407 75.1525 83.8369C73.6057 84.7062 71.0052 86.2076 67.6423 88.167L67.5099 88.2443C65.5514 89.3855 63.4617 90.6085 61.3773 91.8314C60.6479 92.2593 59.9713 92.6566 59.3642 93.0132C59.2326 93.0906 59.1343 93.1487 59.025 93.213C58.143 92.74 56.3873 91.799 55.8021 91.4861C54.292 90.6779 53.0354 90.0083 51.8208 89.3659C51.441 89.1652 51.0703 88.9694 50.7067 88.778C47.2988 86.9847 44.4976 85.5563 42.1807 84.4453C36.4533 81.6952 34.1198 80.7625 31.0503 80.3128C29.1014 80.027 27.246 80.0986 25.4147 80.5663C21.1222 81.6616 19.5422 86.76 22.1012 91.1299C23.6205 93.7204 25.5261 95.8428 29.3291 99.5195C29.3562 99.5453 30.4593 100.61 30.774 100.915C31.3177 101.443 31.7605 101.877 32.1766 102.294C32.5791 102.698 32.9471 103.076 33.292 103.44C33.6386 103.807 35.5945 105.864 36.1588 106.464C41.5063 112.154 44.2699 115.994 45.5663 120.394C47.6175 127.361 48.114 134.394 48.114 147.752C48.114 151.364 48.2027 160.008 48.3552 172.16C48.3732 173.588 48.3919 175.052 48.4112 176.549C48.4763 181.579 48.5458 208.605 48.6157 213.633C48.6398 215.392 48.6625 217.008 48.683 218.444C48.69 218.947 48.6961 219.392 48.7018 219.773C48.7071 220.159 48.7071 220.159 48.7084 220.24C48.7154 220.718 49.1048 221.101 49.5825 221.101H125.34C125.828 221.101 126.221 220.702 126.214 220.215C126.209 219.875 126.21 219.875 126.188 218.349C126.166 216.865 126.143 215.212 126.117 213.431C126.044 208.344 125.971 181.403 125.903 176.654L125.901 176.519C125.778 167.994 125.685 161.539 125.633 157.98C125.572 154.286 125.452 150.415 125.272 146.042C125.134 142.681 125.001 139.883 124.709 134.013C124.359 126.961 124.214 123.897 124.07 120.175C124.208 120.051 124.362 119.914 124.531 119.762C125.141 119.215 125.822 118.602 126.554 117.939C128.647 116.044 130.741 114.125 132.695 112.298C132.932 112.077 133.166 111.858 133.396 111.641C136.847 108.399 139.389 105.882 140.714 104.345C141.563 103.359 142.491 102.332 143.594 101.15C144.11 100.598 144.65 100.025 145.332 99.3075C145.625 98.9998 146.803 97.7624 147.1 97.4508C152.949 91.2973 155.902 87.7028 158.279 83.2735C159.731 80.5816 159.499 77.2974 157.648 75.2721C160.52 71.7532 159.75 66.8453 156.412 64.0275Z" fill="#1794CE"/>
<path d="M80.2348 128.83C80.5631 128.811 80.8022 128.792 81.4363 128.737C81.8166 128.703 82.0142 128.687 82.2375 128.671C83.2637 128.598 83.9823 128.615 84.6034 128.753C85.0745 128.858 85.5413 128.561 85.6462 128.09C85.7511 127.619 85.4543 127.152 84.9832 127.047C84.1606 126.864 83.2948 126.843 82.1138 126.927C81.8778 126.944 81.6732 126.961 81.2838 126.995C80.6693 127.049 80.4407 127.067 80.1378 127.084C79.6557 127.111 79.2868 127.523 79.3135 128.005C79.3402 128.488 79.7528 128.856 80.2348 128.83Z" fill="#005F95"/>
<path d="M77.6408 95.7647C80.8209 95.0021 84.7336 95.6918 88.5741 97.9658C92.0772 100.04 94.1197 102.934 95.6892 107.077C95.8601 107.529 96.3645 107.757 96.816 107.585C97.2675 107.414 97.4948 106.91 97.3239 106.459C95.6267 101.978 93.3631 98.7696 89.4649 96.4614C85.2458 93.9631 80.8712 93.1921 77.2334 94.0645C76.7636 94.1773 76.4742 94.6489 76.587 95.1183C76.6998 95.5877 77.1713 95.8771 77.6408 95.7647Z" fill="#005F95"/>
<path d="M100.2 80.6658C110.296 80.6658 121.272 84.0426 129.702 89.6708C130.103 89.9391 130.646 89.8307 130.914 89.4295C131.183 89.0278 131.074 88.485 130.673 88.2171C121.958 82.3983 110.644 78.9175 100.2 78.9175C99.7169 78.9175 99.3257 79.3087 99.3257 79.7916C99.3257 80.2746 99.7169 80.6658 100.2 80.6658Z" fill="#005F95"/>
<path d="M118.033 83.5265C118.785 83.0563 119.538 82.5755 120.296 82.0825C124.809 79.1488 137.501 70.007 138.097 69.6001C143.92 65.6245 147.925 63.6599 151.698 63.194C152.177 63.135 152.517 62.6983 152.458 62.2193C152.399 61.7403 151.963 61.3998 151.484 61.4588C147.361 61.968 143.147 64.0349 137.111 68.156C136.483 68.5852 123.814 77.7109 119.343 80.617C118.594 81.1043 117.849 81.5794 117.105 82.0449C116.696 82.301 116.572 82.8403 116.828 83.2494C117.084 83.6585 117.624 83.7827 118.033 83.5265Z" fill="#005F95"/>
<path d="M107.664 80.8161C108.06 80.5321 108.426 80.2681 109.054 79.8166C114.707 75.7505 117.13 74.0358 120.427 71.8098C126.09 67.9868 128.247 66.6358 132.272 64.5204C132.699 64.2961 132.864 63.7673 132.639 63.3403C132.414 62.9128 131.886 62.7485 131.459 62.9731C127.363 65.1253 125.161 66.5047 119.449 70.3605C116.132 72.5996 113.701 74.3208 108.033 78.3974C107.406 78.8484 107.039 79.1124 106.643 79.3965C106.251 79.678 106.162 80.2244 106.443 80.6164C106.725 81.0085 107.272 81.0981 107.664 80.8161Z" fill="#005F95"/>
<path d="M156.239 74.9857C156.655 75.2305 157.191 75.0915 157.436 74.6759C157.681 74.2598 157.542 73.7239 157.126 73.4787C155.665 72.619 154.016 72.1277 152.322 72.0478L152.266 72.0469C150.91 72.07 149.443 72.5307 147.804 73.3695C146.675 73.9468 145.524 74.6667 144.084 75.6601C144.039 75.6907 141.443 77.5195 140.811 77.9321C134.149 82.291 131.078 84.2626 127.21 86.6197C126.798 86.871 126.668 87.4086 126.919 87.8212C127.17 88.2334 127.708 88.3641 128.12 88.1128C132.009 85.743 135.091 83.7639 141.767 79.3958C142.429 78.9635 145.055 77.1139 145.077 77.0994C146.459 76.1453 147.553 75.4617 148.6 74.9259C150.01 74.2043 151.228 73.8196 152.269 73.7956C153.669 73.866 155.031 74.2742 156.239 74.9857Z" fill="#005F95"/>
<path d="M28.0829 142.289C31.4309 143.11 35.3558 142.634 38.8087 142.634C40.994 142.634 44.7179 142.765 48.0309 142.59C47.9544 137.903 47.5309 133.228 46.7634 128.604C45.0413 129.478 43.7039 131.515 43.9442 133.412C42.3926 130.955 38.1443 129.701 35.7098 131.445C32.6503 133.63 34.7395 136.856 35.5481 139.649C33.743 139.251 28.3189 138.565 26.728 139.937C24.8442 141.581 26.5575 141.913 28.0829 142.289Z" fill="#91D5DD"/>
<path d="M171.373 207.57C166.893 206.621 157.045 205.791 157.045 205.791C157.045 205.791 161.368 205.022 163.344 204.143C170.975 200.76 177.015 193.579 174.209 184.75C171.543 176.35 162.343 171.638 153.068 173.321C147.561 174.322 141.306 177.425 136.778 180.97C136.726 177.084 136.612 173.286 135.904 169.431C134.541 162.001 131.359 155.807 125.414 152.551C125.514 155.392 125.589 158.224 125.642 161.048C125.742 167.268 125.952 181.87 126.079 191.7C124.774 192.028 123.506 192.492 122.298 193.085C120.012 194.274 116.8 195.979 117.158 199.003C115.017 191.809 107.722 188.837 100.606 190.375C96.1044 191.346 93.0537 197.102 92.3019 202.207C91.9291 200.247 91.4208 198.314 90.7809 196.425C89.0326 190.987 84.4172 187.451 79.4171 184.965C71.5061 181.005 62.5592 181.057 54.2199 183.732C52.253 184.388 50.3413 185.198 48.503 186.158C48.3325 173.36 48.1183 156.328 48.1183 150.82V149.444C46.5326 149.393 44.9452 149.451 43.3674 149.619C35.3165 150.493 28.2578 159.409 27.3137 167.101C26.5358 173.478 26.999 179.06 30.4956 185.769C28.472 182.574 27.0908 181.162 24.1581 179.881C20.1327 178.133 13.7295 177.534 9.89206 179.728C4.91827 182.591 2.73291 185.738 1.04582 191.123C-1.72959 199.982 2.32644 207.771 9.3938 212.212C15.6833 216.167 25.2857 219.205 32.6591 220.079C38.7781 220.809 64.8757 221.027 73.84 221.084C91.9741 221.198 115.073 221.019 133.212 220.975C145.743 220.949 161.141 221.062 173.575 219.41C176.91 218.973 184.148 216.63 179.598 211.386C177.732 209.253 174.026 208.129 171.373 207.57Z" fill="#91D5DD"/>
<path d="M188.75 153.744C189.365 152.664 189.45 151.361 188.98 150.21C188.51 149.06 187.538 148.189 186.342 147.848C183.864 147.14 179.965 148.46 177.6 152.656C178.999 150.471 180.35 145.956 179.628 143.381C178.732 140.199 174.738 140.759 171.953 141.384C167.233 142.415 160.528 148.342 160.388 153.582C157.093 149.754 145.817 157.394 154.047 157.796C159.61 158.067 181.84 158.386 187.391 158.102C189.48 157.997 195.14 157.84 195.14 157.84C200.512 155.173 191.657 149.701 188.75 153.744Z" fill="#91D5DD"/>
<path d="M100.812 191.23C107.922 189.693 114.453 192.868 116.342 199.251C116.646 200.278 118.174 199.963 118.048 198.9C117.818 196.955 119.202 195.692 122.723 193.861C125.154 192.599 129.418 191.659 132.055 191.825C132.537 191.855 132.953 191.489 132.983 191.007C133.013 190.525 132.647 190.11 132.165 190.08C129.205 189.893 124.626 190.903 121.917 192.309C120.069 193.271 119.108 193.854 118.169 194.71C117.67 195.166 117.261 195.648 116.953 196.159C113.958 190.597 107.388 188.02 100.443 189.521C96.8352 190.298 93.8382 194.065 92.3133 198.413C92.107 197.706 91.8745 196.955 91.6175 196.157C89.971 191.036 85.9063 187.227 79.8122 184.183C72.0725 180.308 63.012 179.995 53.9572 182.9C48.7224 184.582 42.0649 188.472 37.7716 192.311C37.4114 192.633 37.3808 193.186 37.7025 193.545C38.0246 193.906 38.5771 193.936 38.9368 193.615C43.0514 189.935 49.4956 186.169 54.4917 184.564C63.1331 181.792 71.7246 182.089 79.0302 185.746C84.7441 188.6 88.4758 192.098 89.9531 196.692C90.6301 198.796 91.1306 200.591 91.4103 202.061C91.197 203.523 91.1647 204.976 91.3434 206.337C91.4588 207.214 92.6546 207.385 93.0104 206.575C93.5139 205.429 93.5441 203.952 93.1931 201.998C94.0222 197.04 97.1285 192.024 100.812 191.23Z" fill="#1A4E66"/>
<path d="M70.6548 14.6403C70.0066 14.719 69.504 14.0852 69.7286 13.4716C69.8073 13.2569 69.8322 12.8854 69.8366 12.0004L69.837 11.954C69.844 10.565 69.8986 10.0309 70.2474 9.49813C70.823 8.58815 71.7697 8.19173 73.1583 8.00466C73.4354 7.96751 73.5447 7.95658 74.1443 7.90107C74.4555 7.87223 74.6299 7.853 74.7908 7.82896C79.4841 7.12877 80.1829 7.75772 80.3608 12.6525C80.3774 13.1062 80.0439 13.4969 79.5929 13.552L70.6548 14.6403Z" fill="#3B4B4C"/>
<path d="M118.4 70.1616C110.865 70.6551 105.123 71.0445 102.949 71.2184C102.127 71.2844 101.55 71.3321 99.949 71.4641C94.4336 71.9195 91.8667 72.1114 88.7346 72.2727C80.5513 72.694 73.9345 72.4737 67.631 71.374C64.3071 70.7892 62.1646 68.8548 61.0601 65.8119C60.2065 63.4604 59.9884 60.6181 60.1785 56.8794C60.3437 53.6674 60.3879 51.1687 60.4215 45.6025C60.4285 44.4294 60.432 43.8997 60.4373 43.2441C60.4814 37.8423 60.6064 34.2347 60.946 30.4174C61.0173 29.6123 61.0391 28.8776 61.0597 27.1651C61.0758 25.8443 61.0872 25.2726 61.1182 24.5331C61.2996 20.2672 62.0833 17.5146 64.169 15.7339C65.6022 14.5115 67.6057 13.7811 70.2495 13.3231C70.9309 13.205 71.6421 13.1071 72.4585 13.0132C72.7758 12.9769 73.0975 12.9424 73.497 12.9013C73.6176 12.8886 74.2811 12.8213 74.4625 12.8025C85.5462 11.6513 95.8169 11.3147 105.352 11.9253C106.249 11.9821 107.43 12.0486 109.062 12.136C110.035 12.188 113.828 12.3873 113.688 12.3799C114.31 12.4131 114.859 12.4419 115.378 12.4699C116.268 12.518 117.058 12.5612 117.781 12.6023C121.768 12.8077 124.951 16.001 125.143 19.9897C125.547 28.4593 125.872 36.4511 126.053 43.2782C126.155 47.2394 126.093 50.3216 125.876 55.6364C125.713 59.6076 125.676 60.6732 125.66 62.4788C125.624 66.5453 122.458 69.8959 118.4 70.1616Z" fill="#5F8083"/>
<path d="M72.9493 17.2605C73.2383 24.3756 73.3912 29.0649 73.4161 32.8692C73.4376 35.173 73.4415 37.1263 73.4345 39.632C73.4327 40.219 73.4319 40.4887 73.4271 41.8283C73.4192 43.9109 73.4161 45.0867 73.4161 46.5701C73.4161 49.0671 73.3947 51.0413 73.33 55.3657C73.3191 56.1004 73.3147 56.3898 73.3095 56.7796C73.24 61.5634 73.223 64.5123 73.268 67.7322C73.2745 68.2147 73.6714 68.6007 74.1539 68.5941C74.6369 68.5876 75.0228 68.1907 75.0158 67.7077C74.9717 64.5088 74.9883 61.5734 75.0573 56.805C75.063 56.4156 75.0674 56.1262 75.0783 55.3919C75.1426 51.0588 75.1644 49.0784 75.1644 46.5701C75.1644 45.0893 75.1675 43.9153 75.1754 41.8348C75.1802 40.4948 75.181 40.2247 75.1828 39.6368C75.1898 37.1245 75.1858 35.1647 75.1644 32.8556C75.1391 29.0265 74.9861 24.3249 74.6963 17.1897C74.6767 16.7072 74.2697 16.3321 73.7872 16.3518C73.3051 16.3715 72.9297 16.7784 72.9493 17.2605Z" fill="#3B4B4C"/>
<path d="M94.1988 58.2947C90.0898 57.5194 86.3664 50.0105 86.175 43.6375C86.0889 40.8023 86.6702 37.1816 87.7668 34.199C89.1121 30.5389 91.1082 28.0358 93.7123 27.33C96.9641 26.4484 106.571 25.3999 114.128 24.8452C114.332 24.8308 114.528 24.8164 114.839 24.7936C119.913 24.423 122.048 24.3299 124.816 24.461C125.178 24.4781 125.537 24.4999 125.89 24.5266C130.729 24.8806 135.846 30.07 137.376 36.0513C138.407 40.0767 138.647 44.3351 137.861 47.9589C136.897 52.4083 134.455 55.7195 130.431 57.3948C125.902 59.2773 122.295 59.6571 113.948 59.696C112.973 59.7004 112.546 59.703 112.008 59.7082C107.212 59.7677 97.7102 58.9573 94.1988 58.2947Z" fill="#3B4B4C"/>
<path d="M123.529 24.4117C114.218 24.8584 108.777 32.1408 108.745 41.2568C108.745 46.3356 110.923 51.8812 114.357 55.442C116.914 58.1077 120.114 59.6733 123.685 59.1986C124.164 59.1348 124.501 58.6956 124.437 58.217C124.373 57.7384 123.934 57.4018 123.455 57.4657C120.526 57.8546 117.827 56.5338 115.617 54.2304C112.5 50.9974 110.493 45.8889 110.493 41.2599C110.523 32.9988 115.337 26.5551 123.612 26.1582C124.095 26.135 124.466 25.7255 124.443 25.243C124.421 24.7609 124.011 24.3885 123.529 24.4117Z" fill="#212D2D"/>
<path d="M124.016 27.3395C119.552 27.4287 116.704 29.3514 114.614 32.7365C110.388 39.5955 112.032 49.9527 118.43 54.1167C123.304 57.2955 129.534 56.4835 133.031 52.0883C136.488 47.7451 137.133 40.4294 134.927 34.792C132.968 29.7731 129.231 27.2351 124.016 27.3395Z" fill="#ACC9CC"/>
<path d="M133.046 42.1031C133.046 42.2574 133.049 42.3781 133.058 42.6377C133.067 42.9192 133.07 43.038 133.068 43.181C133.062 43.6635 133.449 44.0595 133.931 44.0656C134.414 44.0713 134.81 43.6849 134.816 43.2019C134.818 43.0236 134.815 42.8877 134.805 42.5796C134.797 42.3392 134.794 42.2316 134.794 42.1031C134.794 41.6202 134.403 41.229 133.92 41.229C133.437 41.229 133.046 41.6202 133.046 42.1031Z" fill="white"/>
<path d="M132.828 39.1105C132.896 39.5887 133.339 39.9204 133.817 39.8522C134.295 39.784 134.627 39.3408 134.559 38.8631C134.228 36.5528 133.395 34.3429 132.117 32.3892L132.076 32.3315C130.232 29.9582 127.312 28.6807 124.318 28.9372C123.837 28.9787 123.48 29.4023 123.522 29.883C123.563 30.3643 123.986 30.7205 124.467 30.6794C126.859 30.474 129.193 31.4888 130.674 33.3766C131.8 35.1082 132.535 37.0654 132.828 39.1105Z" fill="white"/>
<path d="M113.465 19.4496L117.062 19.5064C117.545 19.5138 117.942 19.1287 117.95 18.6462C117.957 18.1633 117.572 17.766 117.089 17.7581L113.492 17.7013C113.01 17.6938 112.612 18.0789 112.604 18.5619C112.597 19.0444 112.982 19.4421 113.465 19.4496Z" fill="#ACC9CC"/>
<path d="M123.314 4.3328L123.956 1.04178C124.049 0.567952 123.74 0.108852 123.266 0.0163679C122.792 -0.0761602 122.333 0.232982 122.24 0.706812L121.598 3.998C121.505 4.47179 121.814 4.93072 122.288 5.02337C122.762 5.11603 123.221 4.80659 123.314 4.3328Z" fill="#FCD400"/>
<path d="M130.245 8.50422L133.523 6.37131C133.927 6.10776 134.042 5.56623 133.779 5.1615C133.516 4.75721 132.974 4.64226 132.569 4.90581L129.291 7.03872C128.887 7.30184 128.772 7.84337 129.035 8.2481C129.299 8.65283 129.84 8.76734 130.245 8.50422Z" fill="#FCD400"/>
<path d="M132.975 16.7949L136.118 16.4191C136.597 16.3618 136.939 15.9265 136.882 15.447C136.824 14.968 136.389 14.6258 135.91 14.683L132.767 15.0589C132.288 15.1162 131.946 15.5515 132.003 16.0309C132.061 16.51 132.496 16.8522 132.975 16.7949Z" fill="#FCD400"/>
<path d="M99.6867 26.3207C97.8222 27.058 96.5315 29.4156 95.1079 33.1888C94.1136 35.9253 93.5607 38.7912 93.4654 41.6903C93.4309 47.2542 94.222 51.1621 96.4419 55.3741C97.2273 56.7369 98.2535 57.9048 99.4778 58.8388C99.8615 59.1316 100.41 59.0578 100.703 58.674C100.996 58.2903 100.922 57.7418 100.538 57.4489C99.4983 56.6552 98.6259 55.663 97.9725 54.5297C95.9156 50.6254 95.1809 46.9968 95.2133 41.724C95.302 39.0325 95.8199 36.3489 96.7474 33.7959C97.9467 30.6171 99.1544 28.4112 100.33 27.9466C100.779 27.7691 100.998 27.2613 100.821 26.8124C100.643 26.3635 100.136 26.1432 99.6867 26.3207Z" fill="#212D2D"/>
<path d="M108.17 25.3716C106.025 25.9935 103.459 29.5644 102.377 32.4089C101.4 34.988 101.114 37.8793 101.272 41.555C101.412 46.372 102.828 51.078 105.376 55.1825C106.522 56.9286 107.995 58.4077 109.717 59.5497C110.12 59.8163 110.662 59.7066 110.929 59.3045C111.196 58.902 111.086 58.3596 110.684 58.0925C109.158 57.0811 107.854 55.7712 106.849 54.2415C104.476 50.418 103.151 46.0127 103.019 41.4921C102.869 38.02 103.134 35.3447 104.012 33.0291C104.912 30.661 107.203 27.4722 108.656 27.0508C109.12 26.9166 109.387 26.4315 109.253 25.9682C109.118 25.5045 108.634 25.2374 108.17 25.3716Z" fill="#212D2D"/>
</svg>
