<svg width="375" height="197" viewBox="0 0 375 197" fill="none" xmlns="http://www.w3.org/2000/svg">
<g style="mix-blend-mode:soft-light">
<path d="M185.738 71.5863C186.973 68.0678 187.93 59.9019 184.542 56.9852C182.78 55.4575 180.011 54.9411 176.954 55.5607C174.955 55.9493 173.078 56.8141 171.484 58.0821C173.865 47.1918 177 27.6086 162.515 23.3707C156.949 21.7433 150.141 23.5381 144.304 28.1748C139.55 31.9533 136.354 36.8999 135.407 41.7075C133.281 36.8847 129.074 33.295 123.979 31.9569C118.08 30.3585 111.785 32.2644 107.761 36.8678C101.537 43.8371 102.124 54.4639 109.491 68.5058C109.205 68.44 108.915 68.3948 108.622 68.3705C104.302 67.9716 98.9776 71.515 97.2338 75.9488C96.3405 78.2137 95.6251 82.6225 100.896 86.7393C103.241 88.5734 106.59 89.0541 110.01 89.0541C112.046 89.0541 114.103 88.8832 115.989 88.7265C117.018 88.6446 117.993 88.5627 118.861 88.5199C126.406 88.146 156.661 85.2436 161.184 84.7878C166.277 84.2785 181.833 82.7044 185.738 71.5863Z" fill="#EAF3F3"/>
<path d="M284.516 123.049C282.64 119.535 279.936 117.683 276.473 117.547C274.431 117.523 272.408 117.942 270.544 118.776C270.899 118.131 271.202 117.476 271.494 116.817C272.967 113.47 274.359 108.562 272.608 104.207C271.266 100.863 269.077 98.9185 266.109 98.4271C257.923 97.0703 245.4 107.483 237.36 115.272C245.104 104.025 255.866 85.8417 251.681 78.3987C250.087 75.5497 246.567 74.5562 241.218 75.4287C232.602 76.8353 222.903 84.898 216.704 91.9741C213.608 95.5069 202.585 110.3 198.478 115.834C198.294 114.371 197.802 112.963 197.034 111.703C195.564 109.211 193.428 107.587 191.339 107.327C185.819 106.65 180.751 110.176 176.687 117.537C173.769 122.818 172.114 131.91 172.957 135.108C176.829 149.791 196.03 151.489 210.917 151.489C213.337 151.489 215.647 151.443 217.754 151.404C219.551 151.368 221.252 151.336 222.736 151.336C230.388 151.336 239.463 151.126 248.667 149.581C250.848 149.225 253.105 148.986 255.489 148.744C261.287 148.156 267.28 147.547 272.262 144.851C274.32 143.74 279.487 140.649 282.861 136.119C286.149 131.7 286.722 127.181 284.516 123.049Z" fill="#EAF3F3"/>
</g>
<path d="M213.921 56.5655C213.969 56.3202 214.143 56.1183 214.378 56.0336C216.151 55.3946 217.965 54.8754 219.798 54.4819C219.885 54.4617 219.975 54.4407 220.092 54.413C221.601 54.0561 222.123 53.966 222.89 54.0138C223.974 54.0813 224.883 54.5457 225.65 55.494C226.751 56.8573 227.48 58.67 227.851 60.699C228.064 61.8962 227.834 63.605 227.229 64.5739C226.552 65.6728 225.451 66.6483 223.862 67.7116C223.578 67.9015 223.281 68.0924 222.939 68.3071C222.805 68.3911 222.668 68.4763 222.498 68.5815C222.438 68.6188 222.155 68.7935 222.079 68.8408C221.444 69.2336 220.909 69.5906 219.856 70.3117C219.741 70.3905 219.741 70.3905 219.626 70.4695C218.029 71.5637 217.186 72.1053 216.138 72.6691C214.466 73.5237 212.883 74.5442 211.415 75.7151C210.896 76.1284 210.144 75.6705 210.273 75.0198L213.921 56.5655Z" fill="#1794CE"/>
<path d="M218.506 98.7443C223.185 97.9312 231.907 95.2443 233.584 93.5052C235.224 91.8269 235.833 89.5279 235.808 86.4062C235.801 85.5129 235.754 84.7137 235.643 83.311L235.607 82.8654C235.338 79.914 234.78 77.0048 233.94 74.1719C232.964 70.7453 231.446 69.9636 227.254 70.1912C222.916 70.4773 218.613 71.0772 214.37 71.9866C214.002 72.0655 213.759 72.4179 213.816 72.7904L217.681 98.15C217.741 98.5445 218.113 98.8126 218.506 98.7443Z" fill="#1794CE"/>
<path d="M233.95 81.8099C232.872 81.9525 231.624 82.1029 230.133 82.2719C229.027 82.3971 227.903 82.52 226.186 82.7047C221.39 83.2206 220.425 83.3269 218.635 83.547C218.245 83.595 217.968 83.9504 218.016 84.3408C218.064 84.7312 218.419 85.0088 218.809 84.9608C220.588 84.742 221.552 84.6359 226.338 84.1211C228.058 83.936 229.184 83.813 230.293 83.6873C231.792 83.5175 233.048 83.3661 234.137 83.2221C234.526 83.1706 234.801 82.8127 234.749 82.4227C234.698 82.0328 234.34 81.7584 233.95 81.8099Z" fill="#0079B1"/>
<path d="M208.71 90.0319C206.085 86.7583 203.461 84.3608 200.717 82.9407C196.87 80.945 192.447 79.6596 188.377 79.5113C183.52 79.3343 179.372 80.7503 176.411 83.9474C175.764 84.648 175.247 85.529 174.76 86.7117L172.699 80.0022C172.549 79.5156 171.953 79.3385 171.562 79.6647C170.199 80.8034 168.228 83.5709 165.78 87.5738C164.132 90.2673 162.562 93.027 160.977 95.9195C160.571 96.6624 160.153 97.4932 159.723 98.4106C158.666 100.668 157.555 103.397 156.33 106.681C155.748 108.24 155.163 109.863 154.473 111.82C154.187 112.629 153.117 115.684 152.873 116.373C149.451 126.051 147.394 136.658 145.112 153.502C144.664 156.811 144.3 161.725 144.01 167.826C143.814 171.938 143.664 185.245 143.552 189.648C143.513 191.189 143.482 192.621 143.457 193.905C143.449 194.355 143.442 194.754 143.436 195.098C143.434 195.219 143.433 195.289 143.431 195.413C143.43 195.503 143.43 195.503 143.429 195.521C143.424 195.918 143.744 196.243 144.14 196.244L200.703 196.304C201.096 196.304 201.415 195.986 201.415 195.592C201.415 180.436 202.221 151.805 203.649 145.111C204.795 139.753 206.888 133.179 209.251 127.289C210.359 124.519 211.68 121.521 213.459 117.67C213.993 117.588 214.523 117.483 215.048 117.357C217.583 116.731 218.328 116.535 219.632 116.113C224.686 114.476 227.72 112.152 228.26 108.386C228.7 105.324 227.299 101.194 225.119 99.1026C223.557 97.6041 221.386 97.2129 218.503 97.5543C217.643 97.6561 216.805 97.8063 215.592 98.0587C215.409 98.0967 214.802 98.2245 214.717 98.2424C214.595 98.2678 214.484 98.2908 214.381 98.3119C212.168 94.7257 210.582 92.3669 208.71 90.0319Z" fill="#1794CE"/>
<path d="M209.58 104.51C205.236 104.964 202.729 108.518 203.992 112.554C204.002 112.586 204.457 114.157 204.63 114.68C205.101 116.103 205.596 117.077 206.283 117.66C208.172 119.263 210.019 119.571 212.607 118.933C212.989 118.839 213.222 118.453 213.128 118.071C213.034 117.689 212.649 117.456 212.267 117.55C210.094 118.086 208.714 117.856 207.203 116.573C206.776 116.211 206.374 115.419 205.981 114.233C205.819 113.741 205.369 112.187 205.351 112.129C204.363 108.974 206.256 106.289 209.728 105.927C210.119 105.886 210.403 105.535 210.362 105.144C210.321 104.753 209.971 104.469 209.58 104.51Z" fill="#0079B1"/>
<path d="M206.071 106.589L206.069 106.59C202.394 107.235 191.667 107.776 186.893 107.669C186.405 107.658 185.913 107.653 185.21 107.649C185.09 107.648 184.994 107.647 184.778 107.646C180.105 107.621 178.125 107.454 175.948 106.641C172.998 105.538 171.096 103.34 170.274 99.7065C169.394 95.8131 168.765 91.6191 168.197 86.3121C167.986 84.3329 167.876 83.1844 167.492 79.0593C167.414 78.2157 167.358 77.6213 167.302 77.0313C166.802 71.7498 166.35 65.9181 165.703 56.7532C165.764 57.6216 165.092 48.0434 164.912 45.5502C164.663 42.0782 164.448 39.2399 164.241 36.6829C163.724 30.2419 163.648 23.7999 164.508 21.2171C165.555 17.9926 168.372 15.6653 171.717 15.2486C180.219 13.9725 190.904 13.0074 196.572 13.1255C197.079 13.1361 197.527 13.1407 198.501 13.1472C201.371 13.1663 202.708 13.2006 204.398 13.3392C209.752 13.7781 213.49 15.152 215.639 18.1055C216.811 19.7188 217.504 22.0483 217.937 25.1887C218.045 25.9749 218.136 26.7965 218.224 27.7496C218.257 28.1149 218.289 28.4824 218.329 28.9588C218.322 28.8708 218.402 29.8399 218.423 30.0869C218.449 30.3956 218.472 30.6526 218.495 30.8914C218.512 31.0809 218.512 31.0809 218.53 31.2706C219.245 39.0895 219.266 39.315 219.561 42.236C219.762 44.2257 219.961 46.0661 220.166 47.8243C222.026 63.5747 223.142 76.8608 223.558 89.7469C223.749 95.5625 222.881 99.5171 219.868 102.107C218.438 103.329 216.109 104.308 213.054 105.133C211.797 105.473 210.469 105.772 209.028 106.053C208.486 106.158 207.953 106.257 207.35 106.364C207.103 106.408 206.245 106.558 206.071 106.589Z" fill="#1A4E66"/>
<path d="M204.49 103.617C200.27 104.085 196.026 104.292 191.781 104.236C185.585 104.101 180.371 104.927 178.688 97.4878C177.189 90.8639 176.638 82.2849 175.993 75.4972C174.947 64.4573 174.107 49.144 173.207 38.0472C172.965 35.0558 172.264 24.7745 173.42 22.0787C174.577 19.3828 177.414 18.5459 179.453 18.1613C184.353 17.214 190.325 16.4768 195.931 16.5944C201.031 16.7012 209.373 16.1706 212.775 20.8678C214.775 23.6242 214.943 30.355 215.266 33.6135C215.75 38.6811 216.202 43.9055 216.811 49.0479C218.306 61.7045 219.48 76.1133 219.897 88.9337C220.014 92.4949 219.79 97.0747 216.761 99.6744C213.932 102.092 206.935 103.318 204.49 103.617Z" fill="white"/>
<path d="M170.679 17.401C168.936 18.5675 168.376 21.5402 168.455 26.2327C168.475 27.4235 168.532 28.6004 168.636 30.2355C168.651 30.4673 168.714 31.4307 168.729 31.6704C168.761 32.1817 168.783 32.5611 168.798 32.8935C168.939 35.9362 169.151 39.4659 169.475 44.335C169.521 45.0202 169.569 45.7375 169.624 46.5533C169.66 47.0909 169.877 50.2856 169.938 51.183C170.054 52.9118 170.144 54.2671 170.222 55.506C170.955 67.1627 172.062 79.5977 173.546 93.3752C173.952 97.1821 174.802 100.748 176.087 103.241C176.267 103.59 176.696 103.728 177.046 103.547C177.395 103.367 177.532 102.937 177.352 102.588C176.164 100.282 175.351 96.871 174.961 93.2233C173.48 79.4647 172.374 67.0501 171.643 55.4161C171.564 54.1746 171.475 52.8176 171.358 51.0872C171.298 50.1893 171.081 46.9944 171.044 46.4572C170.989 45.6418 170.941 44.925 170.896 44.2403C170.572 39.3801 170.36 35.8586 170.22 32.8284C170.205 32.4864 170.183 32.0996 170.15 31.5805C170.135 31.3391 170.072 30.3752 170.057 30.145C169.954 28.5301 169.898 27.3724 169.879 26.2087C169.808 22.0381 170.313 19.3599 171.471 18.5851C171.798 18.3665 171.885 17.9241 171.667 17.5971C171.448 17.2702 171.006 17.1824 170.679 17.401Z" fill="#0D323F"/>
<path d="M161.585 118.548C161.045 118.535 160.716 117.951 160.983 117.482C161.907 115.866 162.958 114.157 164.26 112.129C164.795 111.297 165.35 110.445 166.087 109.32C166.323 108.961 167.187 107.646 167.118 107.75C167.531 107.122 167.839 106.652 168.137 106.195C168.899 105.027 169.522 104.058 170.095 103.145C174.556 96.034 179.201 90.3622 184.208 86.4552C187.075 84.218 190.476 84.7944 192.629 87.841C193.757 89.4343 193.809 91.24 193.06 93.3898C192.765 94.2347 192.404 95.0198 191.762 96.2799C190.933 97.9066 190.936 97.9018 190.7 98.4394C189.841 100.394 189.29 103.759 189.168 106.894C189.117 108.234 189.273 109.761 189.613 111.499C189.877 112.848 190.233 114.25 190.732 115.987C190.837 116.35 190.945 116.719 191.082 117.181C191.118 117.303 191.352 118.092 191.417 118.314C191.554 118.777 191.2 119.239 190.718 119.228L161.585 118.548Z" fill="#1794CE"/>
<path d="M167.625 41.9936C167.489 39.9993 167.387 38.021 167.32 36.0774C167.307 35.6843 166.977 35.3766 166.584 35.3901C166.191 35.4036 165.884 35.7332 165.897 36.1264C165.965 38.0861 166.068 40.0805 166.205 42.0905C166.231 42.483 166.571 42.7794 166.963 42.7526C167.355 42.7259 167.652 42.386 167.625 41.9936Z" fill="#0D323F"/>
<path d="M168.346 51.8024C168.17 49.8966 168.033 47.8729 167.928 45.7049C167.909 45.312 167.576 45.0088 167.183 45.0277C166.79 45.0466 166.487 45.3804 166.506 45.7733C166.612 47.9613 166.75 50.0057 166.929 51.9336C166.965 52.3253 167.311 52.6135 167.703 52.5772C168.094 52.541 168.382 52.1941 168.346 51.8024Z" fill="#0D323F"/>
<path d="M189.012 108.371C189.245 110.812 189.821 112.728 190.973 115.497C191.037 115.649 191.101 115.803 191.188 116.01C191.242 116.137 191.242 116.137 191.295 116.263C191.348 116.388 191.369 116.439 191.4 116.513C191.568 116.912 191.689 117.206 191.804 117.492C191.95 117.858 192.364 118.035 192.729 117.889C193.094 117.742 193.271 117.328 193.125 116.963C193.007 116.668 192.883 116.367 192.713 115.961C192.681 115.887 192.66 115.835 192.607 115.709C192.554 115.583 192.554 115.583 192.5 115.457C192.414 115.251 192.35 115.099 192.287 114.949C191.185 112.301 190.646 110.507 190.429 108.235C190.392 107.844 190.044 107.557 189.653 107.594C189.262 107.631 188.975 107.979 189.012 108.371Z" fill="#0079B1"/>
<path d="M161.61 116.435C162.515 114.853 163.547 113.173 164.828 111.179C165.362 110.348 165.916 109.498 166.654 108.373C166.89 108.014 167.751 106.703 167.689 106.798C168.103 106.166 168.413 105.694 168.714 105.233C169.483 104.054 170.112 103.076 170.692 102.151C170.901 101.817 170.801 101.378 170.468 101.169C170.135 100.96 169.695 101.06 169.486 101.393C168.911 102.31 168.287 103.282 167.522 104.454C167.222 104.913 166.913 105.385 166.499 106.015C166.562 105.92 165.7 107.231 165.464 107.591C164.724 108.719 164.167 109.573 163.631 110.408C162.338 112.421 161.293 114.121 160.375 115.727C160.18 116.069 160.298 116.504 160.639 116.699C160.98 116.895 161.415 116.776 161.61 116.435Z" fill="#0079B1"/>
<path d="M191.174 137.248C191.903 137.416 192.617 137.642 193.309 137.926C193.673 138.075 194.088 137.9 194.237 137.536C194.386 137.172 194.212 136.756 193.848 136.607C193.084 136.294 192.296 136.044 191.492 135.86C191.109 135.772 190.727 136.012 190.639 136.395C190.551 136.778 190.791 137.161 191.174 137.248Z" fill="#0079B1"/>
<path d="M277.779 166.397C277.29 166.05 276.706 165.861 276.107 165.856C276.594 164.71 276.675 163.432 276.338 162.234C275.956 160.941 274.976 159.91 273.704 159.463C271.597 158.691 269.946 159.553 268.665 160.842C268.932 158.625 268.533 156.378 267.519 154.389C267.401 154.179 264.672 149.261 261.871 148.545C259.579 147.954 257.693 148.328 256.265 149.659C253.176 152.537 253.105 159.396 253.625 163.858C253.211 163.714 252.774 163.646 252.336 163.659C249.973 163.705 246.724 165.795 245.777 167.889C245.421 168.68 245.008 169.83 245.589 170.738C246.169 171.646 247.429 171.807 249.148 171.782C250.589 171.782 252.034 171.782 253.418 171.814C254.486 171.835 255.589 171.853 256.696 171.853C257.803 171.853 258.831 171.835 259.899 171.782L261.323 171.711C264.718 171.547 268.949 171.354 272 170.87L272.928 170.728C275.971 170.275 278.374 169.916 278.352 167.64C278.368 167.158 278.156 166.698 277.779 166.397Z" fill="#91D5DD"/>
<path d="M124.844 134.688C124.51 134.531 124.145 134.451 123.777 134.453C123.937 133.809 123.857 133.129 123.552 132.54C122.926 131.358 121.417 130.678 119.559 130.76C117.068 130.87 114.694 132.288 112.947 134.111L113.075 133.755C113.723 131.949 114.388 130.08 113.708 127.633C113.064 125.329 111.854 122.715 108.074 122.886C104.633 123.043 101.031 125.443 98.4368 129.296C96.3015 132.501 95.3085 136.045 95.7 138.965C94.2658 138.526 92.7162 138.673 91.3901 139.374C89.9666 140.087 89.1089 141.23 89.1694 142.27C89.1943 142.743 89.4398 143.616 90.7887 144.118C91.4616 144.329 92.1657 144.425 92.8707 144.399C93.6572 144.399 94.5006 144.328 95.2907 144.264C95.9313 144.211 96.5364 144.161 96.9884 144.161H106.783C107.783 144.161 108.8 144.179 109.879 144.2C114.651 144.289 120.065 144.389 124.542 142.754L124.631 142.715C126.083 141.949 126.926 140.396 126.891 138.562C126.855 136.814 126.029 135.258 124.844 134.688Z" fill="#91D5DD"/>
<path d="M215.597 164.068C223.879 155.446 230.107 132.729 212.394 128.751C211.223 128.488 210.056 128.281 208.896 128.125C206.701 133.64 204.938 139.318 203.625 145.108C202.678 149.545 202.088 158.997 201.753 168.16C197.312 170.4 193.315 175.432 192.212 178.918C191.817 175.589 187.037 171.233 181.207 172.188C175.378 173.142 169.128 180.339 168.719 184.823C167.256 177.102 157.757 171.027 150.593 169.677C148.373 169.271 146.092 169.329 143.895 169.848C144.155 163.847 144.54 157.569 145.088 153.502C145.799 148.231 146.604 142.615 147.632 136.988H147.568C143.504 137.309 139.027 138.27 135.553 140.397C131.169 143.085 126.353 147.448 124.243 152.255C121.89 157.619 119.716 165.51 121.752 172.932C116.716 170.026 110.997 172.198 109.363 175.913C106.904 181.493 109.598 189.88 116.904 192.433C124.211 194.987 134.863 196.411 147.38 196.411H188.023C202.871 196.411 215.017 195.528 219.907 194.314C230.659 191.636 237.94 186.354 240.496 176.629C243.713 164.332 229.524 152.028 215.597 164.068Z" fill="#91D5DD"/>
<path d="M181.117 171.481C176.211 172.285 170.612 177.524 168.695 182.222C166.056 175.883 158.266 170.393 150.75 168.977C145.653 168.016 140.152 169.591 135.858 172.921C135.547 173.162 135.49 173.609 135.731 173.92C135.972 174.231 136.419 174.288 136.729 174.047C140.718 170.955 145.813 169.496 150.486 170.377C158.444 171.876 166.78 178.28 168.045 184.956C168.198 185.767 169.378 185.71 169.453 184.888C169.862 180.408 176.164 173.736 181.347 172.887C183.866 172.475 186.344 173.11 188.362 174.528C190.15 175.784 191.355 177.53 191.53 179.003C191.62 179.764 192.684 179.864 192.915 179.133C193.855 176.162 196.91 172.235 200.26 169.9C204.157 167.183 207.781 166.91 210.48 169.624C210.758 169.903 211.208 169.904 211.487 169.626C211.766 169.349 211.767 168.898 211.49 168.619C208.22 165.332 203.85 165.661 199.446 168.731C196.503 170.782 193.791 173.953 192.333 176.838C190.637 173.406 185.864 170.704 181.117 171.481Z" fill="#1A4E66"/>
<path d="M200.008 35.193C191.925 33.845 185.18 36.1255 182.602 42.6532C180.535 47.8974 181.124 54.1692 184.292 58.4893C185.87 60.645 189.021 62.3997 192.51 63.1037C196.285 63.8654 199.987 63.3326 202.738 61.3926C214.081 56.2943 212.08 37.1942 200.008 35.193Z" fill="#1FAD66"/>
<path d="M191.913 52.2228C191.869 52.1799 191.639 51.9548 191.574 51.891C191.442 51.7626 191.335 51.6587 191.232 51.5593C190.668 51.0155 190.232 50.6225 189.793 50.2736C189.485 50.029 189.037 50.0805 188.793 50.3886C188.548 50.6967 188.6 51.1447 188.908 51.3893C189.304 51.7045 189.71 52.0703 190.244 52.5853C190.345 52.6823 190.45 52.7842 190.58 52.9107C190.644 52.9739 190.874 53.1988 190.919 53.2422C192.401 54.6902 193.227 55.3865 194.291 55.9513C194.585 56.1077 194.949 56.0386 195.166 55.7848C196.751 53.9282 197.761 52.2024 199.763 48.2758L199.804 48.1951C201.097 45.6594 201.705 44.5377 202.537 43.2432C202.749 42.9124 202.654 42.4717 202.323 42.2588C201.993 42.046 201.552 42.1417 201.34 42.4725C200.473 43.8204 199.851 44.9696 198.536 47.5477L198.495 47.6284C196.714 51.1211 195.749 52.8105 194.462 54.4039C193.75 53.9502 193.041 53.3245 191.913 52.2228Z" fill="white"/>
<path d="M212.636 19.5926C212.017 23.6132 212.451 28.2143 212.846 32.2634C213.291 36.8254 214.412 40.8959 215.768 45.2655C216.051 46.2739 216.391 47.2655 216.786 48.2356C216.786 48.2356 218.377 45.8389 219.117 44.653C220.274 42.8047 221.608 41.0312 222.737 39.1722C224.587 40.8104 226.477 42.2064 228.808 43.1501C230.232 43.7235 231.623 44.3075 233.114 44.4108C232.342 43.0896 231.072 40.6929 230.58 39.2007C229.468 35.8008 228.606 32.3241 228 28.7984C227.288 24.4323 227.242 22.3881 227.046 20.3155C226.018 19.678 224.733 19.8276 223.555 19.6033C222.143 19.3364 220.717 19.1474 219.284 19.037C217.156 18.8625 214.629 18.3818 212.636 19.5926Z" fill="#4E6AF0"/>
<path d="M228.541 43.8102L228.635 43.848C229.211 44.0801 229.328 44.1272 229.586 44.2272C230.975 44.7662 231.989 45.0466 233.066 45.1212C233.636 45.1607 234.018 44.545 233.729 44.051C232.731 42.3442 231.659 40.2005 231.257 38.9777C230.156 35.6121 229.302 32.1691 228.702 28.6775C228.236 25.8199 228.099 24.5316 227.854 21.4115C227.818 20.9608 227.792 20.6422 227.762 20.3248C227.759 20.2866 227.759 20.2866 227.755 20.2483C227.734 20.0264 227.611 19.8272 227.421 19.7098C226.712 19.2702 226.112 19.1475 224.776 19.0326L224.675 19.0239C224.212 18.9838 223.953 18.9538 223.688 18.9034C222.25 18.6315 220.798 18.4391 219.339 18.3267C219.084 18.3057 218.945 18.2925 218.351 18.2334C217.461 18.1449 216.983 18.1064 216.432 18.0893C214.752 18.0373 213.426 18.2796 212.267 18.9836C212.087 19.0928 211.965 19.2759 211.933 19.4839C211.407 22.8977 211.525 26.0444 212.138 32.3325C212.534 36.3885 213.388 39.9957 215.089 45.4765C215.374 46.4922 215.722 47.5091 216.127 48.504C216.343 49.0338 217.063 49.106 217.379 48.6295C217.4 48.5973 217.44 48.5375 217.496 48.4535C217.588 48.3137 217.691 48.1576 217.802 47.9893C218.12 47.5081 218.437 47.0245 218.733 46.5695L218.773 46.5083C219.167 45.903 219.491 45.3994 219.721 45.0301C220.16 44.3282 220.535 43.7684 221.388 42.5199L221.401 42.4998C222.104 41.4716 222.53 40.8381 222.901 40.2566C224.831 41.8924 226.563 43.0091 228.541 43.8102ZM216.388 19.5131C216.897 19.5289 217.351 19.5655 218.211 19.651C218.814 19.7109 218.956 19.7245 219.226 19.7467C220.637 19.8554 222.037 20.041 223.423 20.303C223.748 20.3647 224.043 20.399 224.552 20.4431L224.654 20.4519C225.528 20.5271 225.994 20.5999 226.373 20.7635C226.392 20.983 226.411 21.2231 226.435 21.5232C226.683 24.6795 226.823 26.0019 227.298 28.9129C227.91 32.4788 228.781 35.9893 229.904 39.4221C230.243 40.4501 230.972 41.9915 231.765 43.4595C231.271 43.3286 230.733 43.1443 230.101 42.8991C229.851 42.8023 229.736 42.7561 229.167 42.5267L229.074 42.4892C227.052 41.6707 225.29 40.4811 223.208 38.6386C222.876 38.3444 222.359 38.4229 222.128 38.8023C221.635 39.6152 221.203 40.2659 220.226 41.6958L220.213 41.7159C219.349 42.9802 218.967 43.5506 218.514 44.2748C218.289 44.6355 217.97 45.1325 217.58 45.731L217.541 45.7918C217.354 46.0789 217.158 46.3778 216.959 46.6802C216.774 46.1498 216.606 45.6137 216.454 45.0726C214.774 39.6579 213.939 36.1339 213.555 32.1941C212.974 26.2437 212.847 23.1757 213.289 20.0439C214.117 19.626 215.108 19.4735 216.388 19.5131Z" fill="#90BFFF"/>
<path d="M207.267 24.7865C203.882 20.9588 203.19 13.1976 205.491 8.34064C207.835 3.37818 214.01 0.692496 220.702 0.692496C223.742 0.681045 226.722 1.53848 229.304 3.17215C232.556 5.32484 234.365 9.57446 234.848 14.5846C235.278 19.0506 234.156 22.9618 231.33 25.7685C229.142 27.9618 226.407 29.4473 223.52 29.6538C216.269 30.3918 211.106 29.1409 207.267 24.7865Z" fill="#FCD400"/>
<path d="M220.407 4.2896C222.694 4.28281 224.936 4.92737 226.885 6.15693C229.352 7.79353 230.717 10.9973 231.076 14.7561C231.396 18.1085 230.544 21.0672 228.414 23.195C226.764 24.8412 224.693 25.962 222.506 26.1176C217.084 26.6699 213.201 25.7312 210.31 22.4612C207.747 19.5651 207.227 13.7338 208.964 10.0645C210.738 6.30852 215.381 4.2896 220.407 4.2896ZM220.409 5.71415C215.874 5.71415 211.745 7.50921 210.251 10.6737C208.746 13.8522 209.212 19.0714 211.376 21.5171C213.907 24.3802 217.355 25.2121 222.373 24.6993L222.396 24.6973C224.205 24.5715 225.98 23.6123 227.409 22.1866C229.21 20.3866 229.941 17.8489 229.659 14.8917C229.336 11.518 228.133 8.69437 226.112 7.35305C224.406 6.27653 222.428 5.70811 220.409 5.71415ZM216.74 9.86569C217.148 9.30132 218.04 9.59863 218.028 10.2952C218.028 10.3181 218.028 10.3181 218.026 10.4238C218.024 10.5279 218.021 10.6486 218.019 10.7844C218.01 11.1723 218 11.6045 217.987 12.0698C217.95 13.3997 217.902 14.7298 217.842 15.9723C217.769 17.456 217.683 18.7098 217.582 19.6714C218.279 19.6948 218.742 19.7043 219.301 19.7063C219.694 19.7078 220.012 20.0278 220.011 20.4212C220.009 20.8146 219.689 21.1323 219.296 21.1308C218.494 21.1279 217.891 21.1102 216.576 21.0592L216.533 21.0576C215.207 21.0062 214.573 20.9884 213.758 20.9884C213.364 20.9884 213.046 20.6695 213.046 20.2761C213.046 19.8828 213.364 19.5639 213.758 19.5639C214.502 19.5639 215.095 19.5782 216.155 19.6177C216.258 18.6794 216.346 17.4137 216.42 15.9026C216.48 14.6714 216.528 13.3511 216.564 12.0306C216.565 12.0074 216.565 11.9843 216.566 11.9612C215.691 12.624 214.628 13.2329 213.863 13.4592C213.486 13.5708 213.09 13.3554 212.979 12.9782C212.867 12.601 213.083 12.2048 213.459 12.0932C214.423 11.808 216.221 10.583 216.74 9.86569ZM224.979 14.5077C225.372 14.49 225.704 14.7943 225.722 15.1873C225.74 15.5802 225.436 15.9131 225.043 15.9307C224.826 15.9405 224.518 15.9731 224.109 16.0274C224.024 16.0387 223.934 16.0508 223.836 16.0646C223.811 16.068 223.215 16.1525 223.077 16.1708C222.662 16.2267 222.249 16.2559 221.713 16.2742C221.578 16.2788 221.47 16.2819 221.233 16.2881C220.828 16.2987 220.652 16.3043 220.43 16.3152C220.037 16.3344 219.703 16.0315 219.684 15.6386C219.665 15.2458 219.967 14.9117 220.36 14.8924C220.596 14.8808 220.78 14.875 221.196 14.8641C221.429 14.858 221.535 14.855 221.664 14.8506C222.157 14.8337 222.527 14.8076 222.889 14.7588C223.021 14.7414 223.609 14.6579 223.64 14.6536C223.741 14.6395 223.833 14.627 223.922 14.6152C224.369 14.5559 224.71 14.5197 224.979 14.5077ZM221.487 9.44872C221.879 9.41718 222.222 9.70946 222.254 10.1016C222.284 10.4724 222.024 10.7997 221.664 10.8608C221.654 10.8659 221.642 10.873 221.627 10.8822C221.563 10.9215 221.49 10.98 221.424 11.0455C221.392 11.0775 221.364 11.1095 221.34 11.1398C221.359 11.1497 221.379 11.1609 221.403 11.1736L221.44 11.1929C221.659 11.3082 221.783 11.3845 221.914 11.503C222.46 11.9819 222.696 12.7254 222.519 13.4549C222.338 14.1054 221.903 14.4444 221.244 14.6737C221.194 14.6911 221.144 14.7077 221.082 14.7273L220.942 14.7716C220.908 14.7825 220.881 14.7915 220.856 14.7999C220.484 14.927 220.08 14.7283 219.953 14.356C219.826 13.9838 220.024 13.579 220.396 13.4519C220.431 13.44 220.467 13.4283 220.509 13.4147L220.65 13.37C220.701 13.3539 220.74 13.3409 220.777 13.3282C221.04 13.2367 221.119 13.175 221.141 13.096C221.187 12.9051 221.124 12.7043 220.967 12.5669C220.943 12.5452 220.894 12.515 220.777 12.4534L220.741 12.4345C220.192 12.1457 219.92 11.8952 219.858 11.3288C219.767 10.4884 220.744 9.50856 221.487 9.44872ZM225.223 9.42558L225.523 9.42875C225.916 9.43629 226.228 9.76122 226.221 10.1545C226.213 10.5478 225.889 10.8605 225.496 10.853C225.339 10.85 225.182 10.8493 225.025 10.8509C225.018 11.1866 224.987 11.5667 224.929 12.1473C224.913 12.315 224.905 12.391 224.896 12.484C224.858 12.8933 224.84 13.1901 224.84 13.4742C224.84 13.8675 224.521 14.1864 224.128 14.1864C223.735 14.1864 223.416 13.8675 223.416 13.4742C223.416 13.1374 223.437 12.8009 223.479 12.3514C223.488 12.2547 223.496 12.1768 223.513 12.0063C223.56 11.5257 223.588 11.1999 223.598 10.9287L223.294 10.9621C222.904 11.0085 222.55 10.7294 222.503 10.3388C222.457 9.94815 222.736 9.59391 223.126 9.54755C223.921 9.4531 224.722 9.41341 225.523 9.42875L225.223 9.42558Z" fill="#E2B420"/>
</svg>
