<svg width="135" height="33" viewBox="0 0 135 33" fill="none" xmlns="http://www.w3.org/2000/svg">
<path d="M0 31.4662C0 32.154 0.53992 32.6923 1.22982 32.6923C1.91972 32.6923 2.45964 32.154 2.45964 31.4662V23.182C4.0494 24.7073 6.17909 25.425 8.33877 25.425C12.5082 25.425 16.6775 22.6736 16.6775 16.8419C16.6775 11.0101 12.4482 8.22877 8.33877 8.22877C4.25937 8.22877 0 11.0101 0 16.8419V31.4662ZM2.45964 16.9017C2.45964 12.5353 5.39921 10.6811 8.33877 10.6811C11.3383 10.6811 14.2179 12.5951 14.2179 16.8419C14.2179 21.0886 11.3383 22.9727 8.33877 22.9727C5.39921 22.9727 2.45964 21.1185 2.45964 16.9017Z" fill="#006492"/>
<path d="M27.4321 25.425C31.5415 25.425 35.7709 22.6437 35.7709 16.8119C35.7709 10.9802 31.6015 8.22877 27.4321 8.22877C23.3227 8.22877 19.0933 10.9802 19.0933 16.8119C19.0933 22.6437 23.3527 25.425 27.4321 25.425ZM27.4321 22.9727C24.4925 22.9727 21.553 21.0587 21.553 16.8119C21.553 12.5652 24.4325 10.6811 27.4321 10.6811C30.4316 10.6811 33.3112 12.5652 33.3112 16.8119C33.3112 21.0587 30.4316 22.9727 27.4321 22.9727Z" fill="#006492"/>
<path d="M56.382 16.8119C56.382 10.9802 52.1526 8.19886 48.0432 8.19886C43.9638 8.19886 39.7045 10.9802 39.7045 16.8119V23.6007C39.7045 24.2886 40.2444 24.8269 40.9343 24.8269C41.6242 24.8269 42.1641 24.2886 42.1641 23.6007V16.8119C42.1641 12.5652 45.1037 10.6512 48.0432 10.6512C51.0128 10.6512 53.9524 12.5652 53.9524 16.8119V23.6007C53.9524 24.2886 54.4623 24.8269 55.1522 24.8269C55.8421 24.8269 56.382 24.2886 56.382 23.6007V16.8119Z" fill="#006492"/>
<path d="M76.7445 1.91849C76.7445 1.23064 76.2046 0.692322 75.5147 0.692322C74.8248 0.692322 74.2849 1.23064 74.2849 1.91849V10.4718C72.6951 8.94653 70.5654 8.22877 68.4057 8.22877C64.2363 8.22877 60.067 10.9802 60.067 16.8119C60.067 22.6437 64.2963 25.425 68.4057 25.425C72.4851 25.425 76.7445 22.6437 76.7445 16.8119V1.91849ZM74.2849 16.7521C74.2849 21.1185 71.3453 22.9727 68.4057 22.9727C65.4062 22.9727 62.5266 21.0587 62.5266 16.8119C62.5266 12.5652 65.4062 10.6811 68.4057 10.6811C71.3453 10.6811 74.2849 12.5353 74.2849 16.7521Z" fill="#006492"/>
<path d="M83.9483 16.782C83.9483 12.5353 86.8279 10.6512 89.8274 10.6512C90.7573 10.6512 91.6272 10.8306 92.4371 11.1895C92.587 11.2493 92.737 11.2792 92.947 11.2792C93.6369 11.2792 94.1768 10.7409 94.1768 10.0531C94.1768 9.57456 93.8769 9.15587 93.4869 8.94653C92.3771 8.43812 91.1473 8.19886 89.8274 8.19886C85.718 8.19886 81.4887 10.9503 81.4887 16.782V23.6007C81.4887 24.2886 82.0286 24.8269 82.7185 24.8269C83.4084 24.8269 83.9483 24.2886 83.9483 23.6007V16.782Z" fill="#006492"/>
<path d="M105.464 25.425C109.574 25.425 113.803 22.6437 113.803 16.8119C113.803 10.9802 109.634 8.22877 105.464 8.22877C101.355 8.22877 97.1255 10.9802 97.1255 16.8119C97.1255 22.6437 101.385 25.425 105.464 25.425ZM105.464 22.9727C102.525 22.9727 99.5851 21.0587 99.5851 16.8119C99.5851 12.5652 102.465 10.6811 105.464 10.6811C108.464 10.6811 111.343 12.5652 111.343 16.8119C111.343 21.0587 108.464 22.9727 105.464 22.9727Z" fill="#006492"/>
<path d="M118.322 31.4662C118.322 32.154 118.862 32.6923 119.552 32.6923C120.242 32.6923 120.782 32.154 120.782 31.4662V23.182C122.372 24.7073 124.502 25.425 126.661 25.425C130.831 25.425 135 22.6736 135 16.8419C135 11.0101 130.771 8.22877 126.661 8.22877C122.582 8.22877 118.322 11.0101 118.322 16.8419V31.4662ZM120.782 16.9017C120.782 12.5353 123.722 10.6811 126.661 10.6811C129.661 10.6811 132.54 12.5951 132.54 16.8419C132.54 21.0886 129.661 22.9727 126.661 22.9727C123.722 22.9727 120.782 21.1185 120.782 16.9017Z" fill="#006492"/>
</svg>
