<svg width="258" height="141" viewBox="0 0 258 141" fill="none" xmlns="http://www.w3.org/2000/svg">
<g clip-path="url(#clip0_53730_20258)">
<path d="M34.6941 73.4922H26.4372C26.1469 73.4922 25.8685 73.6075 25.6632 73.8127C25.4579 74.0179 25.3426 74.2962 25.3426 74.5865V78.2092C25.3426 78.4994 25.4579 78.7778 25.6632 78.983C25.8685 79.1882 26.1469 79.3035 26.4372 79.3035H27.8055V84.7316H33.3258V79.3035H34.6941C34.9844 79.3035 35.2628 79.1882 35.4681 78.983C35.6734 78.7778 35.7888 78.4994 35.7888 78.2092V74.5865C35.7888 74.2962 35.6734 74.0179 35.4681 73.8127C35.2628 73.6075 34.9844 73.4922 34.6941 73.4922Z" fill="#006492"/>
<path d="M42.9642 106.648C37.9074 99.2514 35.3223 90.4448 35.5792 81.4897C35.5838 81.2831 35.5167 81.0812 35.3893 80.9184C35.2619 80.7556 35.0821 80.6419 34.8804 80.5966V79.0312H26.1601V80.5749H26.0399C25.9169 80.575 25.7953 80.6005 25.6826 80.6498C25.5699 80.6991 25.4686 80.771 25.385 80.8612C25.3013 80.9513 25.2372 81.0577 25.1966 81.1738C25.1559 81.2898 25.1397 81.413 25.1488 81.5356C25.8358 91.1085 23.5159 99.6933 18.1893 107.29C17.8828 107.726 17.7262 108.251 17.743 108.784L18.6965 138.268C18.7194 138.925 18.9955 139.549 19.4672 140.008C19.9389 140.467 20.5697 140.726 21.228 140.731H40.952C41.6178 140.726 42.2551 140.46 42.7283 139.992C43.2014 139.524 43.4729 138.89 43.485 138.224L43.8525 109.598C43.8633 108.547 43.5535 107.518 42.9642 106.648Z" fill="#3F3D56"/>
<path opacity="0.2" d="M32.9728 74.6719C32.9728 75.298 32.724 75.8985 32.2811 76.3412C31.8382 76.784 31.2375 77.0327 30.6111 77.0327C29.9847 77.0327 29.384 76.784 28.9411 76.3412C28.4982 75.8985 28.2493 75.298 28.2493 74.6719" fill="black"/>
<path d="M39.8418 116.441H37.4534C37.2253 114.962 36.4753 113.613 35.3389 112.639C34.2025 111.664 32.7549 111.129 31.2578 111.129C29.7607 111.129 28.313 111.664 27.1766 112.639C26.0402 113.613 25.2902 114.962 25.0622 116.441H22.6736C22.4194 116.441 22.1683 116.496 21.9374 116.602C21.7065 116.708 21.5013 116.863 21.3358 117.056C21.1703 117.248 21.0485 117.475 20.9787 117.719C20.9089 117.963 20.8928 118.22 20.9314 118.471L23.5258 135.328H38.423L41.5742 118.527C41.622 118.273 41.613 118.011 41.548 117.761C41.483 117.51 41.3636 117.277 41.1982 117.078C41.0327 116.878 40.8255 116.718 40.591 116.608C40.3566 116.498 40.1008 116.441 39.8418 116.441Z" fill="#006492"/>
<path d="M240.554 89.3457L239.981 112.236L239.271 140.62H215.12L214.289 107.364L213.838 89.3457H240.554Z" fill="#E6E6E6"/>
<path d="M228.799 77.168H225.379V122.46H228.799V77.168Z" fill="#006492"/>
<path d="M238.844 106.593L238.197 139.127H216.184L215.426 101.01C217.409 100.453 219.486 100.31 221.527 100.591C223.567 100.872 225.528 101.569 227.288 102.641C230.966 104.815 235.098 105.986 238.844 106.593Z" fill="#3F3D56"/>
<path d="M221.633 110.256H218.495V113.392H221.633V110.256Z" fill="#E6E6E6"/>
<path d="M223.77 103.846H220.633V106.982H223.77V103.846Z" fill="#E6E6E6"/>
<path d="M230.508 108.283L227.988 106.414L226.119 108.933L228.639 110.802L230.508 108.283Z" fill="#E6E6E6"/>
<path d="M236.178 113.841L233.657 111.973L231.788 114.492L234.309 116.36L236.178 113.841Z" fill="#E6E6E6"/>
<path d="M226.56 117.046L224.04 115.178L222.171 117.697L224.691 119.566L226.56 117.046Z" fill="#E6E6E6"/>
<path d="M233.928 102.592C234.282 102.592 234.569 102.305 234.569 101.951C234.569 101.598 234.282 101.311 233.928 101.311C233.574 101.311 233.287 101.598 233.287 101.951C233.287 102.305 233.574 102.592 233.928 102.592Z" fill="#3F3D56"/>
<path d="M220.891 98.319C221.245 98.319 221.532 98.032 221.532 97.678C221.532 97.3241 221.245 97.0371 220.891 97.0371C220.537 97.0371 220.25 97.3241 220.25 97.678C220.25 98.032 220.537 98.319 220.891 98.319Z" fill="#3F3D56"/>
<path d="M231.791 93.8326C232.145 93.8326 232.432 93.5457 232.432 93.1917C232.432 92.8377 232.145 92.5508 231.791 92.5508C231.437 92.5508 231.15 92.8377 231.15 93.1917C231.15 93.5457 231.437 93.8326 231.791 93.8326Z" fill="#3F3D56"/>
<path d="M129.148 140.425C167.94 140.425 199.387 108.99 199.387 70.2123C199.387 31.4351 167.94 0 129.148 0C90.3555 0 58.9083 31.4351 58.9083 70.2123C58.9083 108.99 90.3555 140.425 129.148 140.425Z" fill="#006492"/>
<path opacity="0.2" d="M129.148 121.461C117.287 121.461 105.793 117.349 96.6239 109.828C87.4552 102.306 81.1793 91.8391 78.8654 80.2105C76.5515 68.5818 78.3428 56.5109 83.934 46.0545C89.5253 35.598 98.5707 27.403 109.529 22.8658C120.487 18.3286 132.68 17.7298 144.03 21.1716C155.381 24.6134 165.186 31.8827 171.775 41.741C178.365 51.5993 181.331 63.4366 180.169 75.236C179.006 87.0353 173.787 98.0667 165.4 106.45C160.65 111.224 155 115.009 148.778 117.585C142.555 120.162 135.883 121.479 129.148 121.461ZM129.148 22.1249C102.622 22.1249 81.0416 43.6968 81.0416 70.2124C81.0416 96.7279 102.622 118.3 129.148 118.3C155.673 118.3 177.254 96.7279 177.254 70.2124C177.254 43.6968 155.673 22.1249 129.148 22.1249Z" fill="black"/>
<path d="M129.148 119.881C156.589 119.881 178.835 97.6436 178.835 70.2128C178.835 42.782 156.589 20.5449 129.148 20.5449C101.706 20.5449 79.4606 42.782 79.4606 70.2128C79.4606 97.6436 101.706 119.881 129.148 119.881Z" fill="#3F3D56"/>
<path d="M92.1965 50.3515C91.8197 49.6137 91.592 48.809 91.5265 47.9832C91.461 47.1575 91.559 46.3269 91.8148 45.539C92.0707 44.7512 92.4794 44.0214 93.0175 43.3915C93.5556 42.7616 94.2127 42.2439 94.9511 41.868C95.6896 41.4921 96.4949 41.2654 97.321 41.2008C98.1471 41.1362 98.9779 41.2351 99.7658 41.4916C100.554 41.7482 101.283 42.1575 101.913 42.6961C102.542 43.2347 103.06 43.892 103.435 44.6306L117.473 72.186C117.85 72.9237 118.077 73.7285 118.143 74.5542C118.208 75.38 118.11 76.2105 117.854 76.9984C117.599 77.7863 117.19 78.516 116.652 79.1459C116.114 79.7758 115.457 80.2935 114.718 80.6694C113.98 81.0453 113.174 81.272 112.348 81.3366C111.522 81.4012 110.691 81.3024 109.903 81.0458C109.116 80.7893 108.386 80.38 107.756 79.8414C107.127 79.3028 106.61 78.6454 106.234 77.9069L92.1965 50.3515Z" fill="#FF6584"/>
<path opacity="0.2" d="M93.7622 53.4263L93.1143 52.1545C96.3478 49.6431 100.145 47.7961 104.353 46.4336L105.001 47.7054C100.446 48.6534 96.5716 50.4079 93.7622 53.4263Z" fill="black"/>
<path opacity="0.2" d="M96.7858 59.3599L96.1379 58.0881C99.3713 55.5767 103.168 53.7296 107.376 52.3672L108.024 53.639C103.47 54.587 99.5952 56.3415 96.7858 59.3599Z" fill="black"/>
<path opacity="0.2" d="M99.8093 65.2954L99.1614 64.0237C102.395 61.5122 106.192 59.6652 110.4 58.3027L111.048 59.5745C106.493 60.5226 102.619 62.277 99.8093 65.2954Z" fill="black"/>
<path opacity="0.2" d="M102.833 71.231L102.185 69.9592C105.418 67.4478 109.215 65.6007 113.423 64.2383L114.071 65.5101C109.517 66.4581 105.642 68.2126 102.833 71.231Z" fill="black"/>
<path opacity="0.2" d="M105.856 77.1665L105.208 75.8947C108.442 73.3833 112.239 71.5363 116.447 70.1738L117.095 71.4456C112.541 72.3937 108.666 74.1481 105.856 77.1665Z" fill="black"/>
<path d="M81.6648 60.6673C81.2881 59.9296 81.0606 59.1248 80.9951 58.2991C80.9297 57.4734 81.0278 56.643 81.2836 55.8551C81.5395 55.0673 81.9481 54.3376 82.4863 53.7078C83.0244 53.078 83.6814 52.5603 84.4198 52.1844C85.1582 51.8086 85.9634 51.5819 86.7895 51.5173C87.6156 51.4526 88.4463 51.5514 89.2342 51.8079C90.022 52.0644 90.7516 52.4736 91.3812 53.0121C92.0108 53.5507 92.528 54.2079 92.9033 54.9464L106.941 82.5018C107.698 83.9913 107.832 85.7202 107.315 87.3087C106.797 88.8972 105.67 90.2153 104.18 90.9734C102.691 91.7315 100.962 91.8676 99.3721 91.3519C97.7825 90.8361 96.4627 89.7106 95.7027 88.2227L81.6648 60.6673Z" fill="#FF6584"/>
<path opacity="0.2" d="M83.2306 63.7408L82.5827 62.469C85.8162 59.9575 89.6132 58.1105 93.8212 56.748L94.4691 58.0198C89.9147 58.9679 86.04 60.7223 83.2306 63.7408Z" fill="black"/>
<path opacity="0.2" d="M86.2542 69.6763L85.6063 68.4045C88.8397 65.8931 92.6367 64.0461 96.8447 62.6836L97.4926 63.9554C92.9383 64.9034 89.0636 66.6579 86.2542 69.6763Z" fill="black"/>
<path opacity="0.2" d="M89.2777 75.6119L88.6298 74.3401C91.8633 71.8286 95.6603 69.9816 99.8682 68.6191L100.516 69.8909C95.9618 70.839 92.0871 72.5934 89.2777 75.6119Z" fill="black"/>
<path opacity="0.2" d="M92.3013 81.5474L91.6534 80.2756C94.8868 77.7642 98.6838 75.9171 102.892 74.5547L103.54 75.8265C98.9854 76.7745 95.1107 78.529 92.3013 81.5474Z" fill="black"/>
<path opacity="0.2" d="M95.3248 87.481L94.6769 86.2092C97.9104 83.6978 101.707 81.8507 105.915 80.4883L106.563 81.7601C102.009 82.7081 98.1342 84.4626 95.3248 87.481Z" fill="black"/>
<path d="M162.348 71.7918L162.392 71.7919C163.904 71.8046 165.385 71.3614 166.641 70.5203C167.897 69.6791 168.871 68.479 169.434 67.0764C170.594 64.147 171.178 61.0218 171.155 57.8716C171.076 44.5378 160.224 33.599 146.887 33.4145C141.206 33.335 135.673 35.2215 131.225 38.7541C126.777 42.2867 123.689 47.2481 122.482 52.7973C121.276 58.3464 122.026 64.1419 124.606 69.2013C127.186 74.2606 131.436 78.2726 136.637 80.557C138.012 81.1653 139.538 81.3442 141.016 81.0702C142.494 80.7963 143.854 80.0823 144.919 79.0218C147.203 76.7267 149.919 74.9062 152.91 73.6653C155.902 72.4244 159.109 71.7877 162.348 71.7918Z" fill="#E6E6E6"/>
<path d="M149.7 64.3428C154.19 64.3428 157.831 60.704 157.831 56.2154C157.831 51.7267 154.19 48.0879 149.7 48.0879C145.21 48.0879 141.569 51.7267 141.569 56.2154C141.569 60.704 145.21 64.3428 149.7 64.3428Z" fill="#F9A825"/>
<path d="M132.029 55.3016C132.558 55.3016 132.987 54.873 132.987 54.3442C132.987 53.8154 132.558 53.3867 132.029 53.3867C131.5 53.3867 131.071 53.8154 131.071 54.3442C131.071 54.873 131.5 55.3016 132.029 55.3016Z" fill="#3F3D56"/>
<path d="M100.41 56.204C100.939 56.204 101.368 55.7753 101.368 55.2465C101.368 54.7177 100.939 54.2891 100.41 54.2891C99.8813 54.2891 99.4524 54.7177 99.4524 55.2465C99.4524 55.7753 99.8813 56.204 100.41 56.204Z" fill="#3F3D56"/>
<path d="M137.134 45.3778C137.663 45.3778 138.092 44.9491 138.092 44.4203C138.092 43.8916 137.663 43.4629 137.134 43.4629C136.605 43.4629 136.176 43.8916 136.176 44.4203C136.176 44.9491 136.605 45.3778 137.134 45.3778Z" fill="#3F3D56"/>
<path d="M137.107 72.9755C137.636 72.9755 138.065 72.5468 138.065 72.018C138.065 71.4892 137.636 71.0605 137.107 71.0605C136.578 71.0605 136.149 71.4892 136.149 72.018C136.149 72.5468 136.578 72.9755 137.107 72.9755Z" fill="#3F3D56"/>
<path d="M156.078 43.4012C156.607 43.4012 157.036 42.9726 157.036 42.4438C157.036 41.915 156.607 41.4863 156.078 41.4863C155.549 41.4863 155.12 41.915 155.12 42.4438C155.12 42.9726 155.549 43.4012 156.078 43.4012Z" fill="#3F3D56"/>
<path d="M94.1953 69.5887C94.7243 69.5887 95.1531 69.1601 95.1531 68.6313C95.1531 68.1025 94.7243 67.6738 94.1953 67.6738C93.6663 67.6738 93.2375 68.1025 93.2375 68.6313C93.2375 69.1601 93.6663 69.5887 94.1953 69.5887Z" fill="#3F3D56"/>
<path d="M101.197 83.3602C101.726 83.3602 102.154 82.9316 102.154 82.4028C102.154 81.874 101.726 81.4453 101.197 81.4453C100.668 81.4453 100.239 81.874 100.239 82.4028C100.239 82.9316 100.668 83.3602 101.197 83.3602Z" fill="#3F3D56"/>
<path d="M145.183 87.8221C147.179 87.8221 148.797 86.2048 148.797 84.2099C148.797 82.2149 147.179 80.5977 145.183 80.5977C143.187 80.5977 141.569 82.2149 141.569 84.2099C141.569 86.2048 143.187 87.8221 145.183 87.8221Z" fill="#FF6584"/>
<path opacity="0.2" d="M147.893 84.4355C147.893 85.1541 147.608 85.8431 147.099 86.3512C146.591 86.8593 145.902 87.1447 145.183 87.1447C144.464 87.1447 143.775 86.8593 143.267 86.3512C142.758 85.8431 142.473 85.1541 142.473 84.4355" fill="black"/>
<path opacity="0.2" d="M142.473 83.9846C142.473 83.266 142.758 82.577 143.267 82.0689C143.775 81.5608 144.464 81.2754 145.183 81.2754C145.902 81.2754 146.591 81.5608 147.099 82.0689C147.608 82.577 147.893 83.266 147.893 83.9846" fill="black"/>
<path d="M143.828 83.3062C143.953 83.3062 144.054 83.1546 144.054 82.9676C144.054 82.7805 143.953 82.6289 143.828 82.6289C143.703 82.6289 143.602 82.7805 143.602 82.9676C143.602 83.1546 143.703 83.3062 143.828 83.3062Z" fill="#FF6584"/>
<path d="M145.183 82.855C145.308 82.855 145.409 82.7034 145.409 82.5164C145.409 82.3293 145.308 82.1777 145.183 82.1777C145.058 82.1777 144.957 82.3293 144.957 82.5164C144.957 82.7034 145.058 82.855 145.183 82.855Z" fill="#FF6584"/>
<path d="M145.183 85.7906C145.308 85.7906 145.409 85.639 145.409 85.4519C145.409 85.2649 145.308 85.1133 145.183 85.1133C145.058 85.1133 144.957 85.2649 144.957 85.4519C144.957 85.639 145.058 85.7906 145.183 85.7906Z" fill="#FF6584"/>
<path d="M146.538 83.9839C146.663 83.9839 146.764 83.8323 146.764 83.6453C146.764 83.4583 146.663 83.3066 146.538 83.3066C146.413 83.3066 146.312 83.4583 146.312 83.6453C146.312 83.8323 146.413 83.9839 146.538 83.9839Z" fill="#FF6584"/>
<path d="M146.312 86.4664C146.437 86.4664 146.538 86.3147 146.538 86.1277C146.538 85.9407 146.437 85.7891 146.312 85.7891C146.187 85.7891 146.086 85.9407 146.086 86.1277C146.086 86.3147 146.187 86.4664 146.312 86.4664Z" fill="#FF6584"/>
<path d="M143.602 85.3394C143.727 85.3394 143.828 85.1878 143.828 85.0008C143.828 84.8137 143.727 84.6621 143.602 84.6621C143.477 84.6621 143.376 84.8137 143.376 85.0008C143.376 85.1878 143.477 85.3394 143.602 85.3394Z" fill="#FF6584"/>
<path d="M152.41 78.1131C154.406 78.1131 156.024 76.4959 156.024 74.5009C156.024 72.5059 154.406 70.8887 152.41 70.8887C150.414 70.8887 148.797 72.5059 148.797 74.5009C148.797 76.4959 150.414 78.1131 152.41 78.1131Z" fill="#FF6584"/>
<path opacity="0.2" d="M155.12 74.7285C155.12 75.447 154.835 76.1361 154.327 76.6442C153.818 77.1522 153.129 77.4377 152.41 77.4377C151.691 77.4377 151.002 77.1522 150.494 76.6442C149.985 76.1361 149.7 75.447 149.7 74.7285" fill="black"/>
<path opacity="0.2" d="M149.7 74.2756C149.7 73.557 149.985 72.868 150.494 72.3599C151.002 71.8518 151.691 71.5664 152.41 71.5664C153.129 71.5664 153.818 71.8518 154.327 72.3599C154.835 72.868 155.12 73.557 155.12 74.2756" fill="black"/>
<path d="M151.055 73.5992C151.18 73.5992 151.281 73.4475 151.281 73.2605C151.281 73.0735 151.18 72.9219 151.055 72.9219C150.93 72.9219 150.829 73.0735 150.829 73.2605C150.829 73.4475 150.93 73.5992 151.055 73.5992Z" fill="#FF6584"/>
<path d="M152.41 73.148C152.535 73.148 152.636 72.9964 152.636 72.8093C152.636 72.6223 152.535 72.4707 152.41 72.4707C152.285 72.4707 152.184 72.6223 152.184 72.8093C152.184 72.9964 152.285 73.148 152.41 73.148Z" fill="#FF6584"/>
<path d="M152.41 76.0816C152.535 76.0816 152.636 75.93 152.636 75.7429C152.636 75.5559 152.535 75.4043 152.41 75.4043C152.285 75.4043 152.184 75.5559 152.184 75.7429C152.184 75.93 152.285 76.0816 152.41 76.0816Z" fill="#FF6584"/>
<path d="M153.765 74.2769C153.89 74.2769 153.991 74.1253 153.991 73.9383C153.991 73.7512 153.89 73.5996 153.765 73.5996C153.641 73.5996 153.539 73.7512 153.539 73.9383C153.539 74.1253 153.641 74.2769 153.765 74.2769Z" fill="#FF6584"/>
<path d="M153.539 76.7593C153.664 76.7593 153.765 76.6077 153.765 76.4207C153.765 76.2336 153.664 76.082 153.539 76.082C153.415 76.082 153.314 76.2336 153.314 76.4207C153.314 76.6077 153.415 76.7593 153.539 76.7593Z" fill="#FF6584"/>
<path d="M150.829 75.6304C150.954 75.6304 151.055 75.4788 151.055 75.2918C151.055 75.1047 150.954 74.9531 150.829 74.9531C150.704 74.9531 150.603 75.1047 150.603 75.2918C150.603 75.4788 150.704 75.6304 150.829 75.6304Z" fill="#FF6584"/>
<path d="M159.637 83.0799C161.633 83.0799 163.251 81.4626 163.251 79.4677C163.251 77.4727 161.633 75.8555 159.637 75.8555C157.642 75.8555 156.024 77.4727 156.024 79.4677C156.024 81.4626 157.642 83.0799 159.637 83.0799Z" fill="#006492"/>
<path opacity="0.2" d="M162.348 79.6953C162.348 80.4138 162.062 81.1029 161.554 81.611C161.046 82.119 160.356 82.4045 159.637 82.4045C158.919 82.4045 158.229 82.119 157.721 81.611C157.213 81.1029 156.927 80.4138 156.927 79.6953" fill="black"/>
<path opacity="0.2" d="M156.927 79.2424C156.927 78.5239 157.213 77.8348 157.721 77.3267C158.229 76.8186 158.919 76.5332 159.637 76.5332C160.356 76.5332 161.046 76.8186 161.554 77.3267C162.062 77.8348 162.348 78.5239 162.348 79.2424" fill="black"/>
<path d="M158.282 78.566C158.407 78.566 158.508 78.4143 158.508 78.2273C158.508 78.0403 158.407 77.8887 158.282 77.8887C158.158 77.8887 158.056 78.0403 158.056 78.2273C158.056 78.4143 158.158 78.566 158.282 78.566Z" fill="#006492"/>
<path d="M159.637 78.1148C159.762 78.1148 159.863 77.9632 159.863 77.7761C159.863 77.5891 159.762 77.4375 159.637 77.4375C159.513 77.4375 159.411 77.5891 159.411 77.7761C159.411 77.9632 159.513 78.1148 159.637 78.1148Z" fill="#006492"/>
<path d="M159.637 81.0484C159.762 81.0484 159.863 80.8968 159.863 80.7097C159.863 80.5227 159.762 80.3711 159.637 80.3711C159.513 80.3711 159.411 80.5227 159.411 80.7097C159.411 80.8968 159.513 81.0484 159.637 81.0484Z" fill="#006492"/>
<path d="M160.992 79.2437C161.117 79.2437 161.218 79.0921 161.218 78.9051C161.218 78.718 161.117 78.5664 160.992 78.5664C160.868 78.5664 160.767 78.718 160.767 78.9051C160.767 79.0921 160.868 79.2437 160.992 79.2437Z" fill="#006492"/>
<path d="M160.767 81.7261C160.891 81.7261 160.992 81.5745 160.992 81.3875C160.992 81.2004 160.891 81.0488 160.767 81.0488C160.642 81.0488 160.541 81.2004 160.541 81.3875C160.541 81.5745 160.642 81.7261 160.767 81.7261Z" fill="#006492"/>
<path d="M158.056 80.5972C158.181 80.5972 158.282 80.4456 158.282 80.2586C158.282 80.0715 158.181 79.9199 158.056 79.9199C157.932 79.9199 157.831 80.0715 157.831 80.2586C157.831 80.4456 157.932 80.5972 158.056 80.5972Z" fill="#006492"/>
<path d="M141.569 83.533C143.565 83.533 145.183 81.9158 145.183 79.9208C145.183 77.9258 143.565 76.3086 141.569 76.3086C139.574 76.3086 137.956 77.9258 137.956 79.9208C137.956 81.9158 139.574 83.533 141.569 83.533Z" fill="#006492"/>
<path opacity="0.2" d="M144.28 80.1465C144.28 80.865 143.994 81.5541 143.486 82.0622C142.978 82.5702 142.288 82.8556 141.569 82.8556C140.851 82.8556 140.161 82.5702 139.653 82.0622C139.145 81.5541 138.859 80.865 138.859 80.1465" fill="black"/>
<path opacity="0.2" d="M138.859 79.6935C138.859 78.975 139.145 78.2859 139.653 77.7779C140.161 77.2698 140.851 76.9844 141.569 76.9844C142.288 76.9844 142.978 77.2698 143.486 77.7779C143.994 78.2859 144.28 78.975 144.28 79.6935" fill="black"/>
<path d="M140.214 79.0171C140.339 79.0171 140.44 78.8655 140.44 78.6785C140.44 78.4915 140.339 78.3398 140.214 78.3398C140.09 78.3398 139.988 78.4915 139.988 78.6785C139.988 78.8655 140.09 79.0171 140.214 79.0171Z" fill="#006492"/>
<path d="M141.569 78.566C141.694 78.566 141.795 78.4143 141.795 78.2273C141.795 78.0403 141.694 77.8887 141.569 77.8887C141.445 77.8887 141.344 78.0403 141.344 78.2273C141.344 78.4143 141.445 78.566 141.569 78.566Z" fill="#006492"/>
<path d="M141.569 81.4996C141.694 81.4996 141.795 81.3479 141.795 81.1609C141.795 80.9739 141.694 80.8223 141.569 80.8223C141.445 80.8223 141.344 80.9739 141.344 81.1609C141.344 81.3479 141.445 81.4996 141.569 81.4996Z" fill="#006492"/>
<path d="M142.924 79.6949C143.049 79.6949 143.15 79.5433 143.15 79.3562C143.15 79.1692 143.049 79.0176 142.924 79.0176C142.8 79.0176 142.699 79.1692 142.699 79.3562C142.699 79.5433 142.8 79.6949 142.924 79.6949Z" fill="#006492"/>
<path d="M142.699 82.1773C142.823 82.1773 142.924 82.0257 142.924 81.8386C142.924 81.6516 142.823 81.5 142.699 81.5C142.574 81.5 142.473 81.6516 142.473 81.8386C142.473 82.0257 142.574 82.1773 142.699 82.1773Z" fill="#006492"/>
<path d="M139.988 81.0484C140.113 81.0484 140.214 80.8968 140.214 80.7097C140.214 80.5227 140.113 80.3711 139.988 80.3711C139.864 80.3711 139.763 80.5227 139.763 80.7097C139.763 80.8968 139.864 81.0484 139.988 81.0484Z" fill="#006492"/>
<path d="M149.7 85.1131C151.696 85.1131 153.314 83.4958 153.314 81.5009C153.314 79.5059 151.696 77.8887 149.7 77.8887C147.704 77.8887 146.086 79.5059 146.086 81.5009C146.086 83.4958 147.704 85.1131 149.7 85.1131Z" fill="#006492"/>
<path opacity="0.2" d="M152.41 81.7266C152.41 82.0823 152.34 82.4346 152.204 82.7633C152.068 83.092 151.868 83.3907 151.616 83.6422C151.365 83.8938 151.066 84.0933 150.737 84.2295C150.408 84.3656 150.056 84.4357 149.7 84.4357C149.344 84.4357 148.992 84.3656 148.663 84.2295C148.334 84.0933 148.035 83.8938 147.784 83.6422C147.532 83.3907 147.332 83.092 147.196 82.7633C147.06 82.4346 146.99 82.0823 146.99 81.7266" fill="black"/>
<path opacity="0.2" d="M146.99 81.2756C146.99 80.9198 147.06 80.5675 147.196 80.2388C147.332 79.9101 147.532 79.6115 147.784 79.3599C148.035 79.1083 148.334 78.9088 148.663 78.7726C148.992 78.6365 149.344 78.5664 149.7 78.5664C150.056 78.5664 150.408 78.6365 150.737 78.7726C151.066 78.9088 151.365 79.1083 151.616 79.3599C151.868 79.6115 152.068 79.9101 152.204 80.2388C152.34 80.5675 152.41 80.9198 152.41 81.2756" fill="black"/>
<path d="M148.345 80.5972C148.47 80.5972 148.571 80.4456 148.571 80.2586C148.571 80.0715 148.47 79.9199 148.345 79.9199C148.22 79.9199 148.119 80.0715 148.119 80.2586C148.119 80.4456 148.22 80.5972 148.345 80.5972Z" fill="#006492"/>
<path d="M149.7 80.146C149.825 80.146 149.926 79.9944 149.926 79.8074C149.926 79.6204 149.825 79.4688 149.7 79.4688C149.575 79.4688 149.474 79.6204 149.474 79.8074C149.474 79.9944 149.575 80.146 149.7 80.146Z" fill="#006492"/>
<path d="M149.7 83.0816C149.825 83.0816 149.926 82.93 149.926 82.7429C149.926 82.5559 149.825 82.4043 149.7 82.4043C149.575 82.4043 149.474 82.5559 149.474 82.7429C149.474 82.93 149.575 83.0816 149.7 83.0816Z" fill="#006492"/>
<path d="M151.055 81.2749C151.18 81.2749 151.281 81.1233 151.281 80.9363C151.281 80.7493 151.18 80.5977 151.055 80.5977C150.93 80.5977 150.829 80.7493 150.829 80.9363C150.829 81.1233 150.93 81.2749 151.055 81.2749Z" fill="#006492"/>
<path d="M150.829 83.7574C150.954 83.7574 151.055 83.6058 151.055 83.4187C151.055 83.2317 150.954 83.0801 150.829 83.0801C150.704 83.0801 150.603 83.2317 150.603 83.4187C150.603 83.6058 150.704 83.7574 150.829 83.7574Z" fill="#006492"/>
<path d="M148.119 82.6285C148.244 82.6285 148.345 82.4768 148.345 82.2898C148.345 82.1028 148.244 81.9512 148.119 81.9512C147.994 81.9512 147.893 82.1028 147.893 82.2898C147.893 82.4768 147.994 82.6285 148.119 82.6285Z" fill="#006492"/>
<path d="M155.346 88.951C157.342 88.951 158.96 87.3337 158.96 85.3388C158.96 83.3438 157.342 81.7266 155.346 81.7266C153.35 81.7266 151.733 83.3438 151.733 85.3388C151.733 87.3337 153.35 88.951 155.346 88.951Z" fill="#FF6584"/>
<path opacity="0.2" d="M158.056 85.5645C158.056 86.283 157.771 86.972 157.263 87.4801C156.754 87.9882 156.065 88.2736 155.346 88.2736C154.627 88.2736 153.938 87.9882 153.43 87.4801C152.922 86.972 152.636 86.283 152.636 85.5645" fill="black"/>
<path opacity="0.2" d="M152.636 85.1135C152.636 84.3949 152.922 83.7059 153.43 83.1978C153.938 82.6897 154.627 82.4043 155.346 82.4043C156.065 82.4043 156.754 82.6897 157.263 83.1978C157.771 83.7059 158.056 84.3949 158.056 85.1135" fill="black"/>
<path d="M153.991 84.4351C154.116 84.4351 154.217 84.2835 154.217 84.0965C154.217 83.9094 154.116 83.7578 153.991 83.7578C153.866 83.7578 153.765 83.9094 153.765 84.0965C153.765 84.2835 153.866 84.4351 153.991 84.4351Z" fill="#FF6584"/>
<path d="M155.346 83.9839C155.471 83.9839 155.572 83.8323 155.572 83.6453C155.572 83.4583 155.471 83.3066 155.346 83.3066C155.221 83.3066 155.12 83.4583 155.12 83.6453C155.12 83.8323 155.221 83.9839 155.346 83.9839Z" fill="#FF6584"/>
<path d="M155.346 86.9195C155.471 86.9195 155.572 86.7679 155.572 86.5808C155.572 86.3938 155.471 86.2422 155.346 86.2422C155.221 86.2422 155.12 86.3938 155.12 86.5808C155.12 86.7679 155.221 86.9195 155.346 86.9195Z" fill="#FF6584"/>
<path d="M156.701 85.1128C156.826 85.1128 156.927 84.9612 156.927 84.7742C156.927 84.5872 156.826 84.4355 156.701 84.4355C156.577 84.4355 156.475 84.5872 156.475 84.7742C156.475 84.9612 156.577 85.1128 156.701 85.1128Z" fill="#FF6584"/>
<path d="M156.475 87.5953C156.6 87.5953 156.701 87.4437 156.701 87.2566C156.701 87.0696 156.6 86.918 156.475 86.918C156.351 86.918 156.25 87.0696 156.25 87.2566C156.25 87.4437 156.351 87.5953 156.475 87.5953Z" fill="#FF6584"/>
<path d="M153.765 86.4664C153.89 86.4664 153.991 86.3147 153.991 86.1277C153.991 85.9407 153.89 85.7891 153.765 85.7891C153.641 85.7891 153.539 85.9407 153.539 86.1277C153.539 86.3147 153.641 86.4664 153.765 86.4664Z" fill="#FF6584"/>
<path d="M108.876 72.5243C109.405 72.5243 109.833 72.0956 109.833 71.5668C109.833 71.038 109.405 70.6094 108.876 70.6094C108.347 70.6094 107.918 71.038 107.918 71.5668C107.918 72.0956 108.347 72.5243 108.876 72.5243Z" fill="#3F3D56"/>
<path d="M134.911 106.321L111.908 99.9438L112.789 96.6719L135.792 103.049L134.911 106.321Z" fill="#F9A825"/>
<path d="M131.539 105.228C123.661 106.735 115.569 106.735 107.692 105.228V101.836C115.587 103.144 123.644 103.144 131.539 101.836V105.228Z" fill="#F9A825"/>
<path d="M133.99 95.0519C126.113 96.5593 118.021 96.5593 110.143 95.0519V91.6602C118.039 92.9682 126.095 92.9682 133.99 91.6602V95.0519Z" fill="#F9A825"/>
<path d="M142.236 99.1222C134.359 100.63 126.267 100.63 118.39 99.1222V95.7305C126.285 97.0385 134.341 97.0385 142.236 95.7305V99.1222Z" fill="#F9A825"/>
<path d="M144.242 102.966C136.365 104.473 128.273 104.473 120.395 102.966V99.5742C128.29 100.882 136.347 100.882 144.242 99.5742V102.966Z" fill="#F9A825"/>
<path d="M151.235 107.989L127.708 111.939L127.163 108.593L150.689 104.643L151.235 107.989Z" fill="#F9A825"/>
<path d="M147.721 108.424C141.198 113.124 133.847 116.551 126.052 118.526L124.657 115.444C132.383 113.282 139.702 109.869 146.325 105.342L147.721 108.424Z" fill="#F9A825"/>
<path d="M145.761 98.1385C139.238 102.839 131.887 106.266 124.092 108.241L122.696 105.159C130.423 102.996 137.742 99.5838 144.365 95.0566L145.761 98.1385Z" fill="#F9A825"/>
<path d="M154.929 98.3436C148.406 103.044 141.055 106.471 133.26 108.446L131.864 105.364C139.59 103.202 146.91 99.7889 153.533 95.2617L154.929 98.3436Z" fill="#F9A825"/>
<path d="M158.333 100.986C151.811 105.686 144.459 109.114 136.665 111.089L135.269 108.007C142.995 105.844 150.315 102.432 156.938 97.9043L158.333 100.986Z" fill="#F9A825"/>
<path d="M129.825 94.3691H128.696V95.498H129.825V94.3691Z" fill="#00BF71"/>
<path d="M133.213 114.01H132.084V115.139H133.213V114.01Z" fill="#00BF71"/>
<path d="M115.145 94.3691H114.016V95.498H115.145V94.3691Z" fill="#00BF71"/>
<path d="M141.344 108.367H140.214V109.496H141.344V108.367Z" fill="#00BF71"/>
<path d="M142.021 101.818H140.892V102.947H142.021V101.818Z" fill="#00BF71"/>
<path d="M123.393 98.7291L122.085 97.8418L121.577 98.5891L122.886 99.4764L123.393 98.7291Z" fill="#00BF71"/>
<path d="M136.718 101.211L135.41 100.324L134.902 101.072L136.211 101.959L136.718 101.211Z" fill="#00BF71"/>
<path d="M120.457 105.501L119.148 104.613L118.641 105.361L119.95 106.248L120.457 105.501Z" fill="#00BF71"/>
<path d="M128.739 105.437L129.626 104.129L128.879 103.622L127.991 104.93L128.739 105.437Z" fill="#00BF71"/>
<path d="M134.837 107.017L135.724 105.709L134.977 105.202L134.089 106.51L134.837 107.017Z" fill="#00BF71"/>
<path d="M151.1 101.597L151.987 100.289L151.24 99.7821L150.352 101.09L151.1 101.597Z" fill="#00BF71"/>
<path d="M258 140.35H0V141H258V140.35Z" fill="#3F3D56"/>
</g>
<defs>
<clipPath id="clip0_53730_20258">
<rect width="258" height="141" fill="white"/>
</clipPath>
</defs>
</svg>
