<svg width="162" height="153" viewBox="0 0 162 153" fill="none" xmlns="http://www.w3.org/2000/svg">
<g clip-path="url(#clip0_53730_20080)">
<path d="M162 152.193H52.6798V152.664H162V152.193Z" fill="#3F3D56"/>
<path d="M141.598 72.0839C141.809 72.3309 141.965 72.6194 142.057 72.9305C142.148 73.2417 142.174 73.5687 142.131 73.8903C142.088 74.2118 141.978 74.5209 141.809 74.7973C141.639 75.0738 141.413 75.3115 141.145 75.4951L129.831 83.2561L124.849 86.5745C124.566 86.763 124.223 86.8396 123.887 86.7893C123.55 86.739 123.245 86.5654 123.029 86.3024C122.904 86.1491 122.813 85.9704 122.763 85.7786C122.714 85.5868 122.706 85.3865 122.742 85.1916C122.777 84.9966 122.855 84.8117 122.969 84.6496C123.082 84.4874 123.23 84.3519 123.402 84.2525L128.227 81.4531L136.648 73.4397L131.235 67.63L135.245 64.625L141.598 72.0839Z" fill="#A0616A"/>
<path d="M114.994 145.16H112.226L110.582 122.321L117.6 122.121L114.994 145.16Z" fill="#A0616A"/>
<path d="M115.194 152.572C114.456 152.908 113.838 150.182 113.216 150.793C111.474 152.503 108.808 152.875 106.484 152.129L107.298 152.119C107.157 152.074 107.028 152.001 106.917 151.905C106.806 151.808 106.715 151.69 106.651 151.558C106.587 151.425 106.55 151.281 106.544 151.134C106.537 150.987 106.56 150.84 106.612 150.702C106.674 150.537 106.775 150.39 106.906 150.273C107.038 150.155 107.196 150.072 107.367 150.029L109.218 149.567L112.126 144.458L115.094 144.258C115.755 145.101 116.217 146.082 116.444 147.129C116.672 148.176 116.658 149.261 116.405 150.302C116.136 151.4 115.72 152.332 115.194 152.572Z" fill="#2F2E41"/>
<path d="M133.42 145.158H130.653L129.009 122.32L136.228 120.918L133.42 145.158Z" fill="#A0616A"/>
<path d="M133.621 152.571C132.883 152.907 132.265 150.181 131.642 150.792C129.901 152.502 127.235 152.874 124.911 152.128L125.725 152.119C125.584 152.074 125.455 152.001 125.344 151.904C125.232 151.807 125.142 151.689 125.078 151.557C125.014 151.424 124.977 151.28 124.97 151.133C124.964 150.986 124.987 150.839 125.039 150.701C125.1 150.537 125.202 150.389 125.333 150.272C125.465 150.155 125.623 150.071 125.794 150.028L127.645 149.566L130.553 144.457L133.721 144.057L133.801 144.187C134.414 145.174 134.809 146.279 134.96 147.43C135.111 148.581 135.014 149.751 134.677 150.862C134.413 151.705 134.055 152.373 133.621 152.571Z" fill="#2F2E41"/>
<path d="M136.558 65.1415C134.013 65.4953 132.251 66.8879 131.534 69.6659L126.856 61.036C126.578 60.4875 126.508 59.8576 126.658 59.2616C126.807 58.6655 127.167 58.1434 127.671 57.7908C128.205 57.4165 128.863 57.2606 129.509 57.3551C130.155 57.4495 130.74 57.7872 131.145 58.2988L136.558 65.1415Z" fill="#006492"/>
<path d="M141.461 119.918C130.086 124.946 118.446 125.565 106.572 122.322C110.908 105.52 116.028 90.3273 115.996 77.8474L127.626 76.8457L129.416 79.682C133.664 86.4112 136.597 93.8844 138.058 101.705L141.461 119.918Z" fill="#2F2E41"/>
<path d="M122.412 52.0044C125.734 52.0044 128.428 49.3137 128.428 45.9944C128.428 42.6752 125.734 39.9844 122.412 39.9844C119.09 39.9844 116.397 42.6752 116.397 45.9944C116.397 49.3137 119.09 52.0044 122.412 52.0044Z" fill="#A0616A"/>
<path d="M129.029 56.6103L121.61 57.011L120.407 50.4L126.422 49.3984L129.029 56.6103Z" fill="#A0616A"/>
<path d="M128.227 77.8471L120.099 78.0758L115.996 78.6484C113.982 72.0007 112.286 65.3683 116.397 59.8169L121.209 55.0089L128.428 54.8086L128.523 54.8632C129.669 55.5194 130.558 56.5462 131.042 57.7744C131.526 59.0026 131.577 60.3589 131.186 61.6198C129.395 67.4357 128.244 72.9278 128.227 77.8471Z" fill="#006492"/>
<path d="M115.796 96.4785L115.291 103.363C115.264 103.731 115.105 104.078 114.842 104.339C114.58 104.599 114.232 104.756 113.863 104.781C113.65 104.795 113.437 104.765 113.236 104.692C113.036 104.619 112.853 104.505 112.699 104.358C112.545 104.211 112.423 104.033 112.342 103.836C112.261 103.639 112.221 103.427 112.226 103.214L112.387 96.4785L117.4 77.4467L117.6 65.8273L123.214 65.627L122.813 79.0494L115.796 96.4785Z" fill="#A0616A"/>
<path d="M123.816 66.6277C121.436 65.6606 119.213 65.9845 117.199 68.03L117.475 58.2195C117.51 57.606 117.765 57.0255 118.193 56.5845C118.621 56.1435 119.194 55.8714 119.807 55.8182C120.457 55.7617 121.104 55.9558 121.616 56.3607C122.128 56.7656 122.465 57.3507 122.559 57.9961L123.816 66.6277Z" fill="#006492"/>
<path d="M135.145 72.739H116.698C121.001 61.3536 122.389 50.7619 116.698 41.6871C116.796 38.9615 120.295 36.5986 123.012 36.8596C126.221 37.1679 130.533 39.5241 131.134 42.6888L135.145 72.739Z" fill="#2F2E41"/>
<path d="M76.3557 36.3585H75.5143V13.3289C75.5143 11.5785 75.1693 9.84529 74.4988 8.22815C73.8284 6.61101 72.8458 5.14164 71.607 3.90394C70.3682 2.66623 68.8976 1.68443 67.279 1.01459C65.6605 0.344753 63.9258 -5.24541e-06 62.1739 0H13.3404C11.5886 -3.86502e-06 9.85382 0.344757 8.23528 1.0146C6.61674 1.68444 5.1461 2.66623 3.90732 3.90394C2.66855 5.14165 1.6859 6.61102 1.01548 8.22816C0.345058 9.8453 -1.93421e-06 11.5785 0 13.3289V139.671C-1.38157e-06 141.421 0.345057 143.155 1.01548 144.772C1.6859 146.389 2.66855 147.858 3.90732 149.096C5.1461 150.334 6.61674 151.316 8.23528 151.985C9.85382 152.655 11.5886 153 13.3404 153H62.1739C63.9258 153 65.6605 152.655 67.279 151.985C68.8976 151.316 70.3682 150.334 71.607 149.096C72.8458 147.858 73.8284 146.389 74.4988 144.772C75.1693 143.155 75.5143 141.421 75.5143 139.671V52.7514H76.3557V36.3585Z" fill="#3F3D56"/>
<path d="M62.7121 3.4668H56.3378C56.6309 4.18486 56.7428 4.96394 56.6636 5.73539C56.5844 6.50685 56.3165 7.247 55.8836 7.89066C55.4506 8.53431 54.8659 9.06171 54.1809 9.42639C53.4959 9.79108 52.7317 9.98185 51.9555 9.98191H23.9795C23.2033 9.98185 22.439 9.79108 21.754 9.42639C21.069 9.06171 20.4843 8.53432 20.0514 7.89066C19.6184 7.24701 19.3506 6.50685 19.2714 5.7354C19.1922 4.96394 19.3041 4.18486 19.5972 3.4668H13.6435C12.3352 3.4668 11.0397 3.72426 9.83104 4.22449C8.62234 4.72471 7.52408 5.45791 6.59898 6.38221C5.67388 7.30651 4.94005 8.40382 4.43938 9.61148C3.93872 10.8191 3.68103 12.1135 3.68103 13.4207V139.577C3.68103 140.885 3.93872 142.179 4.43938 143.387C4.94004 144.594 5.67387 145.692 6.59898 146.616C7.52408 147.54 8.62234 148.273 9.83104 148.774C11.0397 149.274 12.3352 149.531 13.6435 149.531H62.7121C64.0204 149.531 65.3159 149.274 66.5246 148.774C67.7333 148.273 68.8316 147.54 69.7567 146.616C70.6818 145.692 71.4156 144.594 71.9163 143.387C72.4169 142.179 72.6746 140.885 72.6746 139.577V13.4207C72.6746 10.7807 71.625 8.24892 69.7567 6.38221C67.8883 4.5155 65.3544 3.46679 62.7121 3.4668Z" fill="white"/>
<path d="M64.0583 23.1738H12.2974V67.5321H64.0583V23.1738Z" fill="#E6E6E6"/>
<path d="M27.6574 76.7831C29.7491 76.7831 31.4448 75.0889 31.4448 72.999C31.4448 70.9091 29.7491 69.2148 27.6574 69.2148C25.5657 69.2148 23.87 70.9091 23.87 72.999C23.87 75.0889 25.5657 76.7831 27.6574 76.7831Z" fill="#006492"/>
<path d="M29.5511 72.6841H27.973V71.1074H27.3418V72.6841H25.7637V73.3148H27.3418V74.8915H27.973V73.3148H29.5511V72.6841Z" fill="white"/>
<path d="M47.6463 76.7831C49.738 76.7831 51.4337 75.0889 51.4337 72.999C51.4337 70.9091 49.738 69.2148 47.6463 69.2148C45.5546 69.2148 43.8589 70.9091 43.8589 72.999C43.8589 75.0889 45.5546 76.7831 47.6463 76.7831Z" fill="#006492"/>
<path d="M49.54 73.3143V72.6836H45.7527V73.3143H49.54Z" fill="white"/>
<path d="M40.1083 28.707H36.0179C35.8741 28.707 35.7361 28.7641 35.6344 28.8657C35.5327 28.9673 35.4756 29.1052 35.4756 29.2489V31.0427C35.4756 31.1864 35.5327 31.3243 35.6344 31.4259C35.7361 31.5275 35.8741 31.5846 36.0179 31.5846H36.6957V34.2724H39.4305V31.5846H40.1083C40.2521 31.5846 40.3901 31.5275 40.4918 31.4259C40.5935 31.3243 40.6506 31.1864 40.6506 31.0427V29.2489C40.6506 29.1052 40.5935 28.9674 40.4918 28.8657C40.3901 28.7641 40.2521 28.707 40.1083 28.707Z" fill="#006492"/>
<path d="M44.2054 45.1239C41.7003 41.4615 40.4196 37.1008 40.5469 32.6665C40.5491 32.5642 40.5159 32.4643 40.4528 32.3837C40.3897 32.3031 40.3006 32.2468 40.2007 32.2243V31.4492H35.8806V32.2136H35.8211C35.7629 32.2136 35.7053 32.2252 35.6515 32.2475C35.5978 32.2698 35.5489 32.3025 35.5078 32.3437C35.4667 32.3849 35.4341 32.4337 35.4119 32.4875C35.3897 32.5413 35.3783 32.5989 35.3784 32.657C35.3784 32.6678 35.3788 32.6785 35.3796 32.6893C35.72 37.4294 34.5707 41.6803 31.9319 45.4418C31.7801 45.658 31.7025 45.9176 31.7108 46.1815L32.1832 60.7808C32.1945 61.1064 32.3313 61.4151 32.565 61.6424C32.7987 61.8697 33.1112 61.998 33.4373 62.0006H43.2085C43.5384 61.9979 43.8541 61.8666 44.0885 61.6348C44.3229 61.4029 44.4574 61.0888 44.4634 60.7593L44.6454 46.5846C44.6508 46.0643 44.4973 45.5548 44.2054 45.1239Z" fill="#3F3D56"/>
<path opacity="0.2" d="M39.2557 29.291C39.2557 29.6011 39.1324 29.8984 38.913 30.1176C38.6936 30.3369 38.396 30.46 38.0857 30.46C37.7754 30.46 37.4778 30.3369 37.2583 30.1176C37.0389 29.8984 36.9156 29.6011 36.9156 29.291" fill="black"/>
<path d="M42.6585 49.974H41.4752C41.3623 49.2416 40.9907 48.5738 40.4278 48.0914C39.8648 47.609 39.1476 47.3438 38.406 47.3438C37.6643 47.3438 36.9471 47.609 36.3841 48.0914C35.8212 48.5738 35.4496 49.2416 35.3367 49.974H34.1534C34.0275 49.974 33.903 50.0012 33.7887 50.0537C33.6743 50.1063 33.5726 50.1829 33.4906 50.2784C33.4087 50.3738 33.3483 50.4859 33.3137 50.6068C33.2792 50.7278 33.2712 50.8548 33.2903 50.9791L34.5755 59.326H41.9556L43.5167 51.0072C43.5404 50.8812 43.5359 50.7516 43.5037 50.6275C43.4715 50.5034 43.4123 50.3879 43.3304 50.2893C43.2485 50.1906 43.1458 50.1112 43.0296 50.0567C42.9135 50.0023 42.7868 49.974 42.6585 49.974V49.974Z" fill="#006492"/>
<path d="M64.0583 85.6133H12.2974V129.972H64.0583V85.6133Z" fill="#E6E6E6"/>
<path d="M27.6574 139.221C29.7491 139.221 31.4448 137.526 31.4448 135.436C31.4448 133.347 29.7491 131.652 27.6574 131.652C25.5657 131.652 23.87 133.347 23.87 135.436C23.87 137.526 25.5657 139.221 27.6574 139.221Z" fill="#006492"/>
<path d="M29.5511 135.122H27.973V133.545H27.3418V135.122H25.7637V135.752H27.3418V137.329H27.973V135.752H29.5511V135.122Z" fill="white"/>
<path d="M47.6463 139.221C49.738 139.221 51.4337 137.526 51.4337 135.436C51.4337 133.347 49.738 131.652 47.6463 131.652C45.5546 131.652 43.8589 133.347 43.8589 135.436C43.8589 137.526 45.5546 139.221 47.6463 139.221Z" fill="#006492"/>
<path d="M49.54 135.752V135.121H45.7527V135.752H49.54Z" fill="white"/>
<path d="M48.3676 117.126L48.3962 117.126C49.3708 117.134 50.3251 116.848 51.1349 116.307C51.9446 115.765 52.572 114.992 52.9354 114.088C54.0803 111.195 54.3484 108.03 53.7062 104.987C53.0641 101.943 51.54 99.1553 49.3238 96.9707C47.1076 94.7861 44.2972 93.3011 41.2425 92.7006C38.1878 92.1001 35.0239 92.4106 32.1445 93.5936C29.2652 94.7765 26.7977 96.7795 25.0494 99.3532C23.301 101.927 22.349 104.958 22.3119 108.068C22.2748 111.178 23.1542 114.231 24.8407 116.845C26.5271 119.46 28.9461 121.521 31.7964 122.773C32.6822 123.164 33.666 123.28 34.6186 123.103C35.5711 122.927 36.4481 122.467 37.1345 121.784C38.6066 120.305 40.3571 119.132 42.285 118.333C44.213 117.533 46.2803 117.123 48.3676 117.126Z" fill="white"/>
<path d="M40.2157 112.325C43.1099 112.325 45.4562 109.981 45.4562 107.089C45.4562 104.198 43.1099 101.854 40.2157 101.854C37.3215 101.854 34.9752 104.198 34.9752 107.089C34.9752 109.981 37.3215 112.325 40.2157 112.325Z" fill="#F9A825"/>
</g>
<defs>
<clipPath id="clip0_53730_20080">
<rect width="162" height="153" fill="white"/>
</clipPath>
</defs>
</svg>
